<?xml version="1.0" encoding="utf-8"?>
<!-- Generator: Adobe Illustrator 16.0.0, SVG Export Plug-In . SVG Version: 6.00 Build 0)  -->
<!DOCTYPE svg PUBLIC "-//W3C//DTD SVG 1.1//EN" "http://www.w3.org/Graphics/SVG/1.1/DTD/svg11.dtd">
<svg version="1.1" xmlns="http://www.w3.org/2000/svg" xmlns:xlink="http://www.w3.org/1999/xlink" x="0px" y="0px"
	 width="79.913px" height="85.091px" viewBox="0 0 79.913 85.091" enable-background="new 0 0 79.913 85.091" xml:space="preserve">
<g id="Layer_1">
	<g>
		
			<path fill="none" stroke="#0D6BB5" stroke-width="2.5" stroke-linecap="round" stroke-linejoin="round" stroke-miterlimit="10" d="
			M7.963,66.26V21.073c0-0.798,0.646-1.445,1.445-1.445H55.58l15.751,15.75V66.26c0,0.798-0.647,1.445-1.446,1.445H9.409
			C8.609,67.705,7.963,67.058,7.963,66.26z"/>
		
			<path fill="none" stroke="#0D6BB5" stroke-width="2.5" stroke-linecap="round" stroke-linejoin="round" stroke-miterlimit="10" d="
			M55.581,33.932V19.628l15.751,15.75H57.026C56.229,35.377,55.581,34.731,55.581,33.932z"/>
		
			<polyline fill="none" stroke="#0D6BB5" stroke-width="2.5" stroke-linecap="round" stroke-linejoin="round" stroke-miterlimit="10" points="
			18.204,29.035 18.204,58.651 61.089,58.651 		"/>
		
			<path fill="none" stroke="#0D6BB5" stroke-width="2.5" stroke-linecap="round" stroke-linejoin="round" stroke-miterlimit="10" d="
			M49.807,49.338l2.605-4.9c1.14-2.809,3.484-1.056,3.484-1.056"/>
		
			<path fill="none" stroke="#0D6BB5" stroke-width="2.5" stroke-linecap="round" stroke-linejoin="round" stroke-miterlimit="10" d="
			M32.145,38.953l0.649-0.649l1.03-1.034c1.102-1.104,2.939-0.924,3.805,0.375l7.597,11.385"/>
		
			<line fill="none" stroke="#0D6BB5" stroke-width="2.5" stroke-linecap="round" stroke-linejoin="round" stroke-miterlimit="10" x1="24.414" y1="35.134" x2="27.753" y2="38.705"/>
		
			<circle fill="none" stroke="#0D6BB5" stroke-width="2.5" stroke-linecap="round" stroke-linejoin="round" stroke-miterlimit="10" cx="47.686" cy="50.348" r="2.364"/>
		
			<circle fill="none" stroke="#0D6BB5" stroke-width="2.5" stroke-linecap="round" stroke-linejoin="round" stroke-miterlimit="10" cx="29.901" cy="39.678" r="2.364"/>
	</g>
</g>
<g id="Layer_2">
</g>
<g id="Layer_3">
</g>
</svg>
