<?xml version="1.0" encoding="utf-8"?>
<!-- Generator: Adobe Illustrator 16.0.0, SVG Export Plug-In . SVG Version: 6.00 Build 0)  -->
<!DOCTYPE svg PUBLIC "-//W3C//DTD SVG 1.1//EN" "http://www.w3.org/Graphics/SVG/1.1/DTD/svg11.dtd">
<svg version="1.1" xmlns="http://www.w3.org/2000/svg" xmlns:xlink="http://www.w3.org/1999/xlink" x="0px" y="0px"
	 width="79.913px" height="85.091px" viewBox="0 0 79.913 85.091" enable-background="new 0 0 79.913 85.091" xml:space="preserve">
<g id="Layer_1">
	
		<polyline fill="none" stroke="#0D6BB5" stroke-width="2.5" stroke-linecap="round" stroke-linejoin="round" stroke-miterlimit="10" points="
		22.281,27.95 22.281,12.736 52.669,12.736 61.487,21.561 61.487,70.762 22.281,70.762 22.281,54.721 	"/>
	
		<line fill="none" stroke="#0D6BB5" stroke-width="2.5" stroke-linecap="round" stroke-linejoin="round" stroke-miterlimit="10" x1="35.004" y1="30.843" x2="53.5" y2="30.843"/>
	
		<line fill="none" stroke="#0D6BB5" stroke-width="2.5" stroke-linecap="round" stroke-linejoin="round" stroke-miterlimit="10" x1="37.577" y1="37.505" x2="53.5" y2="37.505"/>
	
		<line fill="none" stroke="#0D6BB5" stroke-width="2.5" stroke-linecap="round" stroke-linejoin="round" stroke-miterlimit="10" x1="37.577" y1="44.166" x2="53.5" y2="44.166"/>
	
		<line fill="none" stroke="#0D6BB5" stroke-width="2.5" stroke-linecap="round" stroke-linejoin="round" stroke-miterlimit="10" x1="35.004" y1="50.827" x2="53.5" y2="50.827"/>
	
		<line fill="none" stroke="#0D6BB5" stroke-width="2.5" stroke-linecap="round" stroke-linejoin="round" stroke-miterlimit="10" x1="32.271" y1="57.488" x2="42.885" y2="57.488"/>
	<path fill="none" stroke="#0D6BB5" stroke-width="2.5" stroke-linecap="round" stroke-linejoin="round" stroke-miterlimit="10" d="
		M30.674,42.696c0,7.072-5.732,12.805-12.805,12.805c-7.072,0-12.804-5.733-12.804-12.805s5.732-12.805,12.804-12.805"/>
	<path fill="none" stroke="#0D6BB5" stroke-width="2.5" stroke-linecap="round" stroke-linejoin="round" stroke-miterlimit="10" d="
		M18.351,27.442c-0.096,0-0.062,0.013-0.062,0.014v14.81h14.825c0.001,0,0.124,0.043,0.124-0.047
		C33.238,33.936,26.634,27.442,18.351,27.442z"/>
</g>
<g id="Layer_2">
</g>
<g id="Layer_3">
</g>
</svg>
