<?xml version="1.0" encoding="utf-8"?>
<!-- Generator: Adobe Illustrator 16.0.0, SVG Export Plug-In . SVG Version: 6.00 Build 0)  -->
<!DOCTYPE svg PUBLIC "-//W3C//DTD SVG 1.1//EN" "http://www.w3.org/Graphics/SVG/1.1/DTD/svg11.dtd">
<svg version="1.1" xmlns="http://www.w3.org/2000/svg" xmlns:xlink="http://www.w3.org/1999/xlink" x="0px" y="0px"
	 width="79.913px" height="85.091px" viewBox="0 0 79.913 85.091" enable-background="new 0 0 79.913 85.091" xml:space="preserve">
<g id="Layer_1">
	<g>
		
			<circle fill="none" stroke="#0D6BB5" stroke-width="2.5" stroke-linecap="round" stroke-linejoin="round" stroke-miterlimit="10" cx="40.315" cy="48.12" r="13.48"/>
		
			<ellipse fill="none" stroke="#0D6BB5" stroke-width="2.5" stroke-linecap="round" stroke-linejoin="round" stroke-miterlimit="10" cx="40.316" cy="48.12" rx="7.341" ry="13.481"/>
		
			<line fill="none" stroke="#0D6BB5" stroke-width="2.5" stroke-linecap="round" stroke-linejoin="round" stroke-miterlimit="10" x1="52.915" y1="44.074" x2="27.432" y2="44.074"/>
		
			<line fill="none" stroke="#0D6BB5" stroke-width="2.5" stroke-linecap="round" stroke-linejoin="round" stroke-miterlimit="10" x1="52.915" y1="52.356" x2="27.432" y2="52.356"/>
		
			<line fill="none" stroke="#0D6BB5" stroke-width="2.5" stroke-linecap="round" stroke-linejoin="round" stroke-miterlimit="10" x1="40.174" y1="35.155" x2="40.174" y2="61.275"/>
		
			<path fill="none" stroke="#0D6BB5" stroke-width="2.5" stroke-linecap="round" stroke-linejoin="round" stroke-miterlimit="10" d="
			M53.593,62.641l1.699,8.5c0.183,0.912,1.307,1.252,1.965,0.594l1.754-1.754l3.291,3.292c0.909,0.908,2.383,0.908,3.293,0
			c0.907-0.91,0.907-2.383,0-3.292l-3.293-3.292l1.754-1.754c0.657-0.657,0.317-1.781-0.594-1.963l-8.5-1.7
			C54.147,61.109,53.429,61.827,53.593,62.641z"/>
		
			<path fill="none" stroke="#0D6BB5" stroke-width="2.5" stroke-linecap="round" stroke-linejoin="round" stroke-miterlimit="10" d="
			M54.585,67.602H11.902c-0.729,0-1.32-0.591-1.32-1.319V21.893c0-0.729,0.592-1.32,1.32-1.32h56.828
			c0.729,0,1.321,0.591,1.321,1.32v44.389c0,0.728-0.593,1.319-1.321,1.319h-5.012"/>
		
			<line fill="none" stroke="#0D6BB5" stroke-width="2.5" stroke-linecap="round" stroke-linejoin="round" stroke-miterlimit="10" x1="10.582" y1="29.318" x2="70.051" y2="29.318"/>
		<path fill="#0D6BB5" d="M24.232,26.377c-0.745,0-1.35-0.604-1.35-1.349c0-0.746,0.604-1.349,1.35-1.349
			c0.745,0,1.349,0.604,1.349,1.349C25.581,25.773,24.977,26.377,24.232,26.377"/>
		<path fill="#0D6BB5" d="M20.155,26.377c-0.746,0-1.349-0.604-1.349-1.349c0-0.746,0.604-1.349,1.349-1.349
			c0.745,0,1.349,0.604,1.349,1.349C21.504,25.773,20.9,26.377,20.155,26.377"/>
		<path fill="#0D6BB5" d="M16.166,26.377c-0.746,0-1.349-0.604-1.349-1.349c0-0.746,0.604-1.349,1.349-1.349
			c0.745,0,1.349,0.604,1.349,1.349C17.514,25.773,16.911,26.377,16.166,26.377"/>
	</g>
</g>
<g id="Layer_2">
</g>
<g id="Layer_3">
</g>
</svg>
