<?xml version="1.0" encoding="utf-8"?>
<!-- Generator: Adobe Illustrator 16.0.0, SVG Export Plug-In . SVG Version: 6.00 Build 0)  -->
<!DOCTYPE svg PUBLIC "-//W3C//DTD SVG 1.1//EN" "http://www.w3.org/Graphics/SVG/1.1/DTD/svg11.dtd">
<svg version="1.1" xmlns="http://www.w3.org/2000/svg" xmlns:xlink="http://www.w3.org/1999/xlink" x="0px" y="0px"
	 width="79.913px" height="85.091px" viewBox="0 0 79.913 85.091" enable-background="new 0 0 79.913 85.091" xml:space="preserve">
<g id="Layer_1">
	<g>
		
			<circle fill="none" stroke="#0D6BB5" stroke-width="2.5" stroke-linecap="round" stroke-linejoin="round" stroke-miterlimit="10" cx="59.829" cy="64.568" r="16.358"/>
		
			<line fill="none" stroke="#0D6BB5" stroke-width="2.5" stroke-linecap="round" stroke-linejoin="round" stroke-miterlimit="10" x1="8.729" y1="30.376" x2="69.725" y2="30.376"/>
		
			<line fill="none" stroke="#0D6BB5" stroke-width="2.5" stroke-linecap="round" stroke-linejoin="round" stroke-miterlimit="10" x1="19.615" y1="23.416" x2="19.615" y2="13.672"/>
		
			<line fill="none" stroke="#0D6BB5" stroke-width="2.5" stroke-linecap="round" stroke-linejoin="round" stroke-miterlimit="10" x1="59.981" y1="23.416" x2="59.981" y2="13.672"/>
		
			<path fill="none" stroke="#0D6BB5" stroke-width="2.5" stroke-linecap="round" stroke-linejoin="round" stroke-miterlimit="10" d="
			M23.559,45.44h-5.079c-0.456,0-0.824-0.369-0.824-0.824v-5.08c0-0.455,0.369-0.824,0.824-0.824h5.079
			c0.456,0,0.824,0.369,0.824,0.824v5.08C24.382,45.071,24.015,45.44,23.559,45.44z"/>
		
			<path fill="none" stroke="#0D6BB5" stroke-width="2.5" stroke-linecap="round" stroke-linejoin="round" stroke-miterlimit="10" d="
			M35.622,45.44h-5.08c-0.454,0-0.824-0.369-0.824-0.824v-5.08c0-0.455,0.37-0.824,0.824-0.824h5.08
			c0.456,0,0.824,0.369,0.824,0.824v5.08C36.446,45.071,36.078,45.44,35.622,45.44z"/>
		
			<path fill="none" stroke="#0D6BB5" stroke-width="2.5" stroke-linecap="round" stroke-linejoin="round" stroke-miterlimit="10" d="
			M47.686,45.44h-5.08c-0.454,0-0.824-0.369-0.824-0.824v-5.08c0-0.455,0.37-0.824,0.824-0.824h5.08
			c0.456,0,0.824,0.369,0.824,0.824v5.08C48.51,45.071,48.142,45.44,47.686,45.44z"/>
		
			<path fill="none" stroke="#0D6BB5" stroke-width="2.5" stroke-linecap="round" stroke-linejoin="round" stroke-miterlimit="10" d="
			M59.749,45.44h-5.08c-0.454,0-0.824-0.369-0.824-0.824v-5.08c0-0.455,0.37-0.824,0.824-0.824h5.08
			c0.457,0,0.824,0.369,0.824,0.824v5.08C60.573,45.071,60.206,45.44,59.749,45.44z"/>
		
			<path fill="none" stroke="#0D6BB5" stroke-width="2.5" stroke-linecap="round" stroke-linejoin="round" stroke-miterlimit="10" d="
			M23.559,57.967h-5.079c-0.456,0-0.824-0.369-0.824-0.824v-5.08c0-0.455,0.369-0.824,0.824-0.824h5.079
			c0.456,0,0.824,0.369,0.824,0.824v5.08C24.382,57.598,24.015,57.967,23.559,57.967z"/>
		
			<path fill="none" stroke="#0D6BB5" stroke-width="2.5" stroke-linecap="round" stroke-linejoin="round" stroke-miterlimit="10" d="
			M35.622,57.967h-5.08c-0.454,0-0.824-0.369-0.824-0.824v-5.08c0-0.455,0.37-0.824,0.824-0.824h5.08
			c0.456,0,0.824,0.369,0.824,0.824v5.08C36.446,57.598,36.078,57.967,35.622,57.967z"/>
		
			<path fill="none" stroke="#0D6BB5" stroke-width="2.5" stroke-linecap="round" stroke-linejoin="round" stroke-miterlimit="10" d="
			M69.969,51.392V20.85c0-1.196-0.969-2.165-2.165-2.165h-56.91c-1.195,0-2.164,0.969-2.164,2.165v43.366
			c0,1.195,0.969,2.165,2.164,2.165h32.133"/>
		<g>
			
				<circle fill="none" stroke="#0D6BB5" stroke-width="2.5" stroke-linecap="round" stroke-linejoin="round" stroke-miterlimit="10" cx="59.898" cy="64.645" r="12.311"/>
			
				<circle fill="none" stroke="#0D6BB5" stroke-width="2.5" stroke-linecap="round" stroke-linejoin="round" stroke-miterlimit="10" cx="59.898" cy="64.645" r="1.921"/>
			
				<line fill="none" stroke="#0D6BB5" stroke-width="2.5" stroke-linecap="round" stroke-linejoin="round" stroke-miterlimit="10" x1="59.899" y1="62.724" x2="59.899" y2="56.255"/>
			
				<line fill="none" stroke="#0D6BB5" stroke-width="2.5" stroke-linecap="round" stroke-linejoin="round" stroke-miterlimit="10" x1="61.568" y1="65.595" x2="66.191" y2="68.224"/>
		</g>
	</g>
</g>
<g id="Layer_2">
</g>
<g id="Layer_3">
</g>
</svg>
