<?xml version="1.0" encoding="utf-8"?>
<!-- Generator: Adobe Illustrator 16.0.0, SVG Export Plug-In . SVG Version: 6.00 Build 0)  -->
<!DOCTYPE svg PUBLIC "-//W3C//DTD SVG 1.1//EN" "http://www.w3.org/Graphics/SVG/1.1/DTD/svg11.dtd">
<svg version="1.1" id="Layer_1" xmlns="http://www.w3.org/2000/svg" xmlns:xlink="http://www.w3.org/1999/xlink" x="0px" y="0px"
	 width="155.905px" height="56.693px" viewBox="0 0 155.905 56.693" enable-background="new 0 0 155.905 56.693"
	 xml:space="preserve">
<polygon fill-rule="evenodd" clip-rule="evenodd" fill="#59B6E7" points="45.415,21.023 48.822,15.121 52.23,9.218 45.415,9.218 
	38.599,9.218 42.006,15.121 "/>
<polygon fill-rule="evenodd" clip-rule="evenodd" fill="#059BD7" points="38.66,9.302 42.067,15.204 45.475,21.106 38.66,21.106 
	31.844,21.106 35.251,15.204 "/>
<polygon fill-rule="evenodd" clip-rule="evenodd" fill="#14377D" points="31.992,44.334 35.399,38.432 38.807,32.53 31.992,32.53 
	25.177,32.53 28.584,38.432 "/>
<polygon fill-rule="evenodd" clip-rule="evenodd" fill="#F8951D" points="25.229,32.702 28.636,26.799 32.044,20.896 25.229,20.896 
	18.413,20.896 21.821,26.799 "/>
<polygon fill-rule="evenodd" clip-rule="evenodd" fill="#006AB5" points="38.66,32.702 42.067,26.799 45.475,20.896 38.66,20.896 
	31.844,20.896 35.251,26.799 "/>
<polygon fill-rule="evenodd" clip-rule="evenodd" fill="#1458A8" points="31.992,20.896 35.399,26.798 38.807,32.702 31.992,32.702 
	25.177,32.702 28.584,26.798 "/>
<polygon fill-rule="evenodd" clip-rule="evenodd" fill="#F15F22" points="18.504,20.896 21.912,26.798 25.319,32.702 18.504,32.702 
	11.688,32.702 15.096,26.798 "/>
<path d="M133.163,25.49h11.054v3.141h-3.739v18.845h-3.575V28.63h-3.739V25.49z M124.955,22.286c0.412,0,0.759-0.105,1.04-0.314
	c0.282-0.209,0.434-0.586,0.455-1.13h2.601c-0.043,1.256-0.417,2.219-1.121,2.89c-0.705,0.669-1.696,1.005-2.975,1.005
	c-1.301,0-2.298-0.335-2.991-1.005c-0.693-0.67-1.083-1.633-1.17-2.89h2.633c0.044,0.544,0.2,0.921,0.472,1.13
	C124.169,22.181,124.521,22.286,124.955,22.286z M121.834,47.475h-2.601V25.49h3.186v13.16l5.56-13.16h2.601v21.985h-3.219V35.006
	L121.834,47.475z M108.392,40.502h3.446l-1.724-11.118L108.392,40.502z M116.552,47.475h-3.609l-0.617-3.989h-4.389l-0.618,3.989
	h-3.283l3.642-21.985h5.233L116.552,47.475z M96.412,28.63v7.443h1.69c0.563,0,0.997-0.146,1.301-0.439
	c0.303-0.293,0.455-0.838,0.455-1.634v-3.297c0-0.796-0.152-1.341-0.455-1.634c-0.304-0.293-0.737-0.439-1.301-0.439H96.412z
	 M98.103,25.49c1.799,0,3.137,0.46,4.015,1.382c0.878,0.921,1.317,2.271,1.317,4.052v2.857c0,1.78-0.439,3.131-1.317,4.052
	c-0.878,0.922-2.216,1.382-4.015,1.382h-1.69v8.261h-3.576V25.49H98.103z M81.896,40.502h3.446L83.62,29.384L81.896,40.502z
	 M90.057,47.475h-3.608l-0.618-3.989h-4.389l-0.617,3.989H77.54l3.642-21.985h5.234L90.057,47.475z M65.984,47.475h-2.601V25.49
	h3.186v13.16l5.56-13.16h2.601v21.985H71.51V35.006L65.984,47.475z M52.769,28.63v5.811h1.398c0.672,0,1.197-0.168,1.577-0.503
	c0.379-0.335,0.569-0.942,0.569-1.821v-1.225c0-0.796-0.146-1.372-0.438-1.729c-0.292-0.355-0.753-0.533-1.382-0.533H52.769z
	 M52.769,37.582v6.753h2.048c0.607,0,1.067-0.157,1.381-0.472c0.314-0.313,0.472-0.879,0.472-1.696v-1.915
	c0-1.026-0.179-1.728-0.537-2.104c-0.358-0.377-0.948-0.565-1.771-0.565H52.769z M54.589,25.49c1.864,0,3.213,0.418,4.048,1.256
	c0.834,0.837,1.251,2.104,1.251,3.8v0.785c0,1.131-0.184,2.063-0.553,2.795c-0.368,0.733-0.954,1.277-1.755,1.634
	c0.975,0.355,1.663,0.937,2.064,1.742c0.401,0.807,0.602,1.796,0.602,2.969v1.79c0,1.696-0.455,2.989-1.366,3.879
	c-0.91,0.89-2.265,1.335-4.063,1.335h-5.625V25.49H54.589z"/>
</svg>
