<?xml version="1.0" encoding="UTF-8"?>
<!DOCTYPE svg PUBLIC "-//W3C//DTD SVG 1.1//EN" "http://www.w3.org/Graphics/SVG/1.1/DTD/svg11.dtd">
<!-- Creator: CorelDRAW X7 -->
<svg xmlns="http://www.w3.org/2000/svg" xml:space="preserve" width="210mm" height="297mm" version="1.1" style="shape-rendering:geometricPrecision; text-rendering:geometricPrecision; image-rendering:optimizeQuality; fill-rule:evenodd; clip-rule:evenodd"
viewBox="0 0 21000 29700"
 xmlns:xlink="http://www.w3.org/1999/xlink"
 enable-background="new 0 0 488 488">
 <defs>
  <style type="text/css">
   <![CDATA[
    .fil1 {fill:#13377E}
    .fil0 {fill:#179BD7}
   ]]>
  </style>
 </defs>
 <g id="Layer_x0020_1">
  <metadata id="CorelCorpID_0Corel-Layer"/>
  <path class="fil0" d="M13993 10299l0 847c0,935 -758,1693 -1694,1693l-846 0 0 -423c0,-117 -47,-222 -125,-299 -77,-78 -182,-124 -299,-124 -233,0 -423,190 -423,423l0 423 -2540 0 0 -423c0,-117 -47,-222 -125,-299 -76,-78 -182,-124 -298,-124 -233,0 -424,190 -424,423l0 423 -846 0c-936,0 -1694,-758 -1694,-1693l0 -847 9314 0z"/>
  <polygon class="fil1" points="9124,19189 9548,19189 9548,19613 9124,19613 "/>
  <path class="fil1" d="M14204 11146l0 -1058 -1905 0 0 -1059c0,-350 -285,-635 -635,-635l-4656 0c-351,0 -635,285 -635,635l0 1059 -1905 0 0 5715c0,583 474,1058 1058,1058l1943 0c91,404 354,750 736,941 45,23 73,67 73,117 0,50 -28,95 -73,117 -478,239 -774,719 -774,1253l0 790 423 0 0 -790c0,-373 207,-708 541,-874 188,-95 306,-285 306,-496l423 0 0 847 424 0 0 -847 423 0c0,211 117,401 306,496 333,166 541,501 541,874l0 790 423 0 0 -790c0,-534 -297,-1014 -774,-1253 -45,-22 -73,-67 -73,-117 0,-50 28,-94 73,-117 382,-191 645,-537 736,-941l1943 0c583,0 1058,-475 1058,-1058l0 -4657zm-423 0c0,817 -665,1482 -1482,1482l-635 0 0 -212c0,-350 -285,-635 -635,-635 -350,0 -635,285 -635,635l0 212 -2116 0 0 -212c0,-350 -285,-635 -635,-635 -351,0 -635,285 -635,635l0 212 -635 0c-817,0 -1482,-665 -1482,-1482l0 -635 8890 0 0 635zm-2540 1270l0 847c0,116 -95,211 -212,211 -117,0 -212,-95 -212,-211l0 -847c0,-117 95,-212 212,-212 117,0 212,95 212,212zm-3387 0l0 847c0,116 -95,211 -211,211 -117,0 -212,-95 -212,-211l0 -847c0,-117 95,-212 212,-212 116,0 211,95 211,212zm3175 -2328l-3386 0 0 -424 3386 0 0 424zm-4233 -1059c0,-116 95,-211 212,-211l4656 0c117,0 212,95 212,211l0 1059 -423 0 0 -847 -4234 0 0 847 -423 0 0 -1059zm3481 8395c-39,19 -73,45 -105,72l-1672 0c-33,-27 -67,-53 -105,-73 -334,-166 -541,-501 -541,-874l0 -855 -423 0 0 743 -1905 1c-350,0 -635,-285 -635,-635l0 -3463c349,433 883,711 1482,711l635 0 0 212c0,350 284,635 635,635 350,0 635,-285 635,-635l0 -212 2116 0 0 212c0,350 285,635 635,635 350,0 635,-285 635,-635l0 -212 635 0c598,0 1132,-278 1482,-711l0 3463c0,350 -285,635 -635,635l-1905 0 0 -744 -423 0 0 855c0,373 -208,708 -541,875z"/>
  <polygon class="fil1" points="5738,18978 6161,18978 6161,19401 5738,19401 "/>
  <polygon class="fil1" points="6584,18978 7008,18978 7008,19401 6584,19401 "/>
  <polygon class="fil1" points="4891,18978 5314,18978 5314,19401 4891,19401 "/>
  <polygon class="fil1" points="4044,18978 4468,18978 4468,19401 4044,19401 "/>
  <polygon class="fil1" points="13358,18978 13781,18978 13781,19401 13358,19401 "/>
  <polygon class="fil1" points="14204,18978 14628,18978 14628,19401 14204,19401 "/>
  <polygon class="fil1" points="12511,18978 12934,18978 12934,19401 12511,19401 "/>
  <polygon class="fil1" points="11664,18978 12088,18978 12088,19401 11664,19401 "/>
  <path class="fil0" d="M11705 20303l0 503c0,138 -113,251 -251,251l-4236 0c-138,0 -251,-113 -251,-251l0 -503c0,-138 113,-251 251,-251l4236 0c138,0 251,113 251,251z"/>
  <path class="fil0" d="M11705 14953l0 503c0,138 -113,251 -251,251l-4236 0c-138,0 -251,-113 -251,-251l0 -503c0,-138 113,-251 251,-251l4236 0c138,0 251,113 251,251z"/>
 </g>
</svg>
