<?xml version="1.0" encoding="utf-8"?>
<!-- Generator: Adobe Illustrator 16.0.0, SVG Export Plug-In . SVG Version: 6.00 Build 0)  -->
<!DOCTYPE svg PUBLIC "-//W3C//DTD SVG 1.1//EN" "http://www.w3.org/Graphics/SVG/1.1/DTD/svg11.dtd">
<svg version="1.1" id="Layer_1" xmlns="http://www.w3.org/2000/svg" xmlns:xlink="http://www.w3.org/1999/xlink" x="0px" y="0px"
	 width="595.275px" height="841.89px" viewBox="0 0 595.275 841.89" enable-background="new 0 0 595.275 841.89"
	 xml:space="preserve">
<path fill="#179BD7" d="M239.358,469.9c-5.244-3.402-10.177-7.229-14.769-11.453c-4.167,15.988-20.523,25.598-36.539,21.43
	c-16.016-4.166-25.597-20.521-21.43-36.51c3.43-13.238,15.364-22.45,29.027-22.422c0.906,0,1.785,0.199,2.664,0.284
	c-5.697-13.38-8.617-27.751-8.617-42.293h-7.625l-4.167,19.729c-0.681,3.231-3.855,5.329-7.087,4.649
	c-0.794-0.17-1.53-0.482-2.183-0.936l-16.583-11.424l-18,18l11.424,16.583c1.871,2.721,1.19,6.463-1.559,8.334
	c-0.652,0.453-1.39,0.766-2.154,0.936l-19.701,4.139v24.01l19.729,4.139c3.231,0.68,5.301,3.855,4.62,7.115
	c-0.17,0.766-0.481,1.502-0.936,2.154l-11.424,16.582l18,18l16.583-11.395c2.722-1.9,6.463-1.191,8.362,1.529
	c0.453,0.652,0.766,1.391,0.936,2.184l4.139,19.672h23.98l4.139-19.701c0.681-3.26,3.884-5.328,7.115-4.648
	c0.794,0.17,1.53,0.482,2.183,0.936l16.583,11.424l18.821-18.822C252.907,482.91,247.323,474.888,239.358,469.9L239.358,469.9z"/>
<path fill="#13377E" d="M313.03,270.312c-13.294-5.953-25.285-6.18-44.589-1.616c-45.779,10.885-79.597,51.222-84.273,99.184
	c-0.17,1.701-0.228,3.373-0.313,5.074h-1.785c-2.863,0-5.301,2.013-5.868,4.791l-4.167,19.729l-16.582-11.48
	c-2.41-1.644-5.613-1.332-7.654,0.708l-18,18c-2.041,2.041-2.353,5.272-0.708,7.654l11.395,16.583l-19.729,4.139
	c-2.75,0.596-4.706,3.033-4.706,5.867v24.01c0,2.834,1.984,5.271,4.763,5.867l19.729,4.139l-11.395,16.582
	c-1.645,2.383-1.361,5.586,0.68,7.654l18,18c2.069,2.041,5.272,2.324,7.654,0.68l16.582-11.424l4.139,19.73
	c0.567,2.777,3.033,4.791,5.868,4.791h24.009c2.835,0,5.301-1.984,5.868-4.764l4.139-19.729l16.582,11.395
	c2.382,1.645,5.613,1.361,7.654-0.68l9.326-9.354v17.092c0.028,8.533,4.592,16.412,11.99,20.664v33.336
	c0,13.266,10.743,24.01,24.01,24.01h23.98c13.266,0,24.01-10.744,24.01-24.01v-33.336c7.398-4.252,11.962-12.131,11.99-20.664
	v-23.727c0.17-10.006,5.386-19.219,13.89-24.49c4.989-3.232,9.694-6.859,14.116-10.801l-7.993-8.957
	c-3.969,3.543-8.192,6.775-12.643,9.666c-11.905,7.484-19.219,20.494-19.36,34.582v23.727c0,6.633-5.386,12.02-11.991,12.02h-48.019
	c-6.604,0-11.99-5.387-11.99-12.02v-24.236c-0.142-13.805-7.313-26.561-19.021-33.873c-47.565-29.877-61.909-92.637-32.003-140.202
	c13.635-21.713,34.781-37.19,58.875-43.88c9.496-2.636,23.018-5.159,32.57-2.211L313.03,270.312z M194.286,426.955
	c5.499,11.877,13.04,22.734,22.28,32.059c-4.507,12.473-18.227,18.936-30.671,14.457c-12.443-4.506-18.907-18.227-14.428-30.67
	c3.401-9.525,12.472-15.875,22.592-15.846H194.286z M309.628,588.955h-23.98c-6.634,0-12.02-5.387-12.02-12.02v-5.98h48.019v5.98
	C321.647,583.568,316.261,588.955,309.628,588.955z M321.647,546.945v11.99h-48.019v-11.99H321.647z M248.23,490.308l-12.897,12.842
	l-12.444-8.59c-5.471-3.77-12.926-2.381-16.696,3.063c-0.906,1.303-1.53,2.777-1.87,4.336l-3.146,14.996h-14.259l-3.146-14.967
	c-1.36-6.492-7.71-10.631-14.201-9.27c-1.56,0.313-3.033,0.963-4.337,1.871l-12.473,8.561l-10.941-10.914l8.589-12.443
	c3.77-5.471,2.409-12.926-3.062-16.697c-1.304-0.906-2.778-1.559-4.337-1.869l-14.967-3.146v-14.26l14.967-3.146
	c6.491-1.389,10.63-7.738,9.241-14.229c-0.313-1.531-0.936-3.006-1.814-4.309l-8.617-12.473l10.941-10.914l12.473,8.589
	c5.471,3.742,12.926,2.381,16.696-3.089c0.906-1.304,1.53-2.778,1.842-4.337l1.049-4.989c0.964,6.917,2.58,13.72,4.763,20.353
	c-19.729,2.353-33.817,20.267-31.465,39.998c2.353,19.758,20.268,33.846,39.997,31.492c11.877-1.418,22.28-8.645,27.751-19.305
	c3.288,2.693,6.718,5.188,10.262,7.484C241.795,478.517,246.075,483.958,248.23,490.308L248.23,490.308z"/>
<polygon fill="#13377E" points="291.628,504.935 303.647,504.935 303.647,522.935 291.628,522.935 "/>
<path fill="#13377E" d="M271.389,446.031c-37.021-14.484-55.332-56.239-40.848-93.288c5.585-14.343,15.647-26.504,28.688-34.724
	l-6.406-10.148c-39.261,24.718-51.024,76.592-26.306,115.851c9.581,15.195,23.782,26.93,40.535,33.449
	c14.797,5.697,24.576,19.9,24.576,35.773h12.019C303.647,472.138,290.834,453.458,271.389,446.031z"/>
<polygon fill="#13377E" points="411.647,462.955 453.628,462.955 453.628,474.945 411.647,474.945 "/>
<polygon fill="#13377E" points="401.811,503.546 409.464,494.333 445.492,524.324 437.811,533.566 "/>
<polygon fill="#13377E" points="375.647,510.945 387.638,510.945 387.638,552.955 375.647,552.955 "/>
<polygon fill="#13377E" points="122.173,343.134 170.192,331.115 173.083,342.765 125.093,354.756 "/>
<polygon fill="#13377E" points="132.152,281.82 139.124,272.069 181.106,302.06 174.16,311.839 "/>
<polygon fill="#13377E" points="183.572,242.419 195.194,239.442 207.468,287.461 195.818,290.438 "/>
<path fill="#179BD7" d="M432.963,315.553l19.446-14.599l-22.28-29.707l-19.475,14.599c-5.471,4.11-13.237,2.977-17.319-2.495
	c-1.984-2.608-2.807-5.924-2.353-9.156l3.43-24.095l-36.766-5.244l-3.43,24.066c-0.964,6.775-7.257,11.48-14.003,10.517
	c-3.26-0.454-6.208-2.183-8.164-4.819l-14.599-19.474l-29.707,22.28l14.57,19.474c4.11,5.471,3.005,13.238-2.466,17.348
	c-2.637,1.956-5.925,2.806-9.185,2.324l-24.065-3.43l-5.272,36.793l24.094,3.43c6.775,0.964,11.48,7.229,10.517,14.003
	c-0.481,3.26-2.211,6.18-4.847,8.164l-19.446,14.599l22.28,29.707l19.475-14.599c5.471-4.11,13.209-2.976,17.319,2.495
	c1.984,2.608,2.806,5.924,2.353,9.156l-3.458,24.095l36.766,5.244l3.458-24.094c0.964-6.747,7.257-11.453,14.031-10.489
	c3.231,0.453,6.18,2.211,8.136,4.819l14.599,19.475l29.735-22.31l-14.627-19.445c-4.082-5.471-2.977-13.238,2.494-17.348
	c2.608-1.956,5.925-2.807,9.185-2.353l24.066,3.458l5.244-36.766l-24.066-3.458c-6.775-0.964-11.48-7.229-10.488-14.003
	C428.598,320.457,430.327,317.537,432.963,315.553L432.963,315.553z M362.04,388.885c-23.952,0-43.341-19.417-43.341-43.342
	s19.389-43.342,43.341-43.342c23.925,0,43.313,19.417,43.313,43.342S385.965,388.885,362.04,388.885z"/>
</svg>
