<?xml version="1.0" encoding="UTF-8"?>
<!DOCTYPE svg PUBLIC "-//W3C//DTD SVG 1.1//EN" "http://www.w3.org/Graphics/SVG/1.1/DTD/svg11.dtd">
<!-- Creator: CorelDRAW X7 -->
<svg xmlns="http://www.w3.org/2000/svg" xml:space="preserve" width="210mm" height="297mm" version="1.1" style="shape-rendering:geometricPrecision; text-rendering:geometricPrecision; image-rendering:optimizeQuality; fill-rule:evenodd; clip-rule:evenodd"
viewBox="0 0 21000 29700"
 xmlns:xlink="http://www.w3.org/1999/xlink"
 enable-background="new 0 0 612 792">
 <defs>
  <style type="text/css">
   <![CDATA[
    .fil2 {fill:#13377E}
    .fil1 {fill:#179BD7}
    .fil0 {fill:white}
   ]]>
  </style>
 </defs>
 <g id="Layer_x0020_1">
  <metadata id="CorelCorpID_0Corel-Layer"/>
  <path class="fil0" d="M6452 18089l-1349 -810c-270,810 -1890,810 -1890,810 0,894 1047,1619 1620,1619 572,0 1619,-725 1619,-1619z"/>
  <path class="fil0" d="M12119 18089l-1349 -810c-270,810 -1889,810 -1889,810 0,894 1047,1619 1619,1619 572,0 1619,-725 1619,-1619z"/>
  <path class="fil0" d="M17787 18089l-1350 -810c-270,810 -1889,810 -1889,810 0,894 1047,1619 1619,1619 573,0 1620,-725 1620,-1619z"/>
  <path class="fil1" d="M12142 19903c-191,-127 -415,-195 -644,-195l-998 0 540 1349 -540 540 -540 -540 540 -1349 -998 0c-229,0 -453,68 -644,195 -323,215 -517,578 -517,966l0 2067 4318 0 0 -2067c0,-388 -194,-751 -517,-966z"/>
  <path class="fil2" d="M2944 20869c0,-299 148,-576 397,-742 146,-98 317,-149 494,-149l599 0 -392 979c-40,100 -16,215 60,291l540 540c52,52 122,79 191,79 69,0 138,-27 190,-79l540 -540c77,-76 100,-191 60,-291l-392 -979 599 0c177,0 348,51 495,149 248,166 397,443 397,742l0 2077 540 0 0 -2077c0,-480 -239,-925 -638,-1191 -185,-123 -395,-199 -614,-227 401,-347 712,-833 712,-1362 0,-1785 -1028,-2160 -1889,-2160 -862,0 -1889,375 -1889,2160 0,529 311,1015 711,1362 -219,28 -428,104 -614,227 -399,266 -637,711 -637,1191l0 2077 540 0 0 -2077zm1889 346l-224 -223 224 -558 223 558 -223 223zm-1312 -2871c462,-38 1296,-178 1684,-689l965 579c-109,661 -923,1204 -1337,1204 -391,0 -1138,-484 -1312,-1094zm1312 -1875c766,0 1186,362 1308,1118l-900 -539c-70,-43 -155,-50 -232,-22 -77,28 -136,90 -163,168 -136,409 -873,564 -1348,609 72,-904 499,-1334 1335,-1334z"/>
  <rect class="fil2" x="3483" y="21867" width="540" height="1080"/>
  <rect class="fil2" x="5642" y="21867" width="540" height="1080"/>
  <path class="fil2" d="M8071 20869l0 2077 540 0 0 -2077c0,-299 148,-576 397,-742 147,-98 318,-149 494,-149l599 0 -391 979c-40,100 -17,215 60,291l539 540c53,52 122,79 191,79 69,0 138,-27 191,-79l540 -540c76,-76 99,-191 59,-291l-391 -979 599 0c176,0 347,51 494,149 249,166 397,443 397,742l0 2077 540 0 0 -2077c0,-480 -238,-925 -637,-1191 -186,-123 -396,-199 -615,-227 401,-347 712,-833 712,-1362 0,-1785 -1027,-2160 -1889,-2160 -862,0 -1889,375 -1889,2160 0,529 311,1015 712,1362 -219,28 -429,104 -615,227 -399,266 -637,711 -637,1191zm2429 346l-223 -223 223 -558 223 558 -223 223zm-1312 -2871c462,-38 1296,-178 1684,-689l965 579c-109,661 -923,1204 -1337,1204 -391,0 -1138,-484 -1312,-1094zm1312 -1875c766,0 1187,362 1308,1118l-899 -539c-71,-43 -156,-50 -233,-22 -76,28 -136,90 -162,168 -137,409 -874,564 -1349,609 73,-904 499,-1334 1335,-1334z"/>
  <rect class="fil2" x="9151" y="21867" width="540" height="1080"/>
  <rect class="fil2" x="11310" y="21867" width="540" height="1080"/>
  <path class="fil2" d="M17959 19678c-186,-123 -395,-199 -614,-227 400,-347 711,-833 711,-1362 0,-1785 -1027,-2160 -1889,-2160 -861,0 -1889,375 -1889,2160 0,529 311,1015 712,1362 -219,28 -429,104 -614,227 -399,266 -638,711 -638,1191l0 2077 540 0 0 -2077c0,-299 149,-576 397,-742 147,-98 318,-149 495,-149l599 0 -392 979c-40,100 -16,215 60,291l540 540c52,52 121,79 190,79 69,0 139,-27 191,-79l540 -540c76,-76 100,-191 60,-291l-392 -979 599 0c177,0 348,51 495,149 248,166 397,443 397,742l0 2077 539 0 0 -2077c0,-480 -238,-925 -637,-1191zm-3104 -1334c463,-38 1297,-178 1685,-689l964 579c-108,661 -922,1204 -1337,1204 -391,0 -1137,-484 -1312,-1094zm1312 -1875c766,0 1187,362 1308,1118l-899 -539c-70,-43 -155,-50 -232,-22 -77,28 -137,90 -163,168 -136,409 -873,564 -1348,609 72,-904 499,-1334 1334,-1334zm0 4746l-223 -223 223 -558 224 558 -224 223z"/>
  <rect class="fil2" x="14818" y="21867" width="540" height="1080"/>
  <rect class="fil2" x="16977" y="21867" width="540" height="1080"/>
  <path class="fil2" d="M13157 10532l-2573 0 0 540 2573 0 0 -540zm-6165 1962l0 1007c0,446 363,809 809,809l1673 0 819 983c51,61 127,97 207,97 80,0 156,-36 207,-97l819 -983 1673 0c446,0 809,-363 809,-809l0 -787 -539 0 0 787c0,148 -122,270 -270,270l-1800 0c-80,0 -156,35 -207,97l-692 830 -692 -830c-52,-62 -127,-98 -207,-98l-1800 1c-148,0 -270,-122 -270,-270l0 -1007 -539 0z"/>
  <rect class="fil2" x="11040" y="11612" width="540" height="540"/>
  <rect class="fil2" x="12119" y="11612" width="540" height="540"/>
  <path class="fil2" d="M13405 9286l540 0c0,-1179 -951,-2140 -2125,-2159l0 0c-8,0 -16,0 -24,0 -3,0 -7,0 -10,0l0 0c-473,8 -909,168 -1262,433l313 441c267,-206 600,-329 961,-334 888,7 1607,730 1607,1619z"/>
  <path class="fil2" d="M7801 15930l0 -540c-893,0 -1619,-726 -1619,-1619l-540 0c0,1190 969,2159 2159,2159z"/>
  <path class="fil1" d="M3171 12575l720 0 899 1079 900 -1079 1529 0 2852 0c299,0 540,-242 540,-540l0 -810 0 -2429c0,-298 -241,-539 -540,-539l-6900 0c-298,0 -540,241 -540,539l0 3239c0,298 242,540 540,540z"/>
  <path class="fil1" d="M17788 12756l-492 0 -615 738 -615 -738 -1045 0 -1660 0c-204,0 -369,-165 -369,-369l0 -554 0 -1660c0,-203 165,-369 369,-369l4427 0c204,0 369,166 369,369l0 2214c0,204 -165,369 -369,369z"/>
 </g>
</svg>
