<?xml version="1.0" encoding="UTF-8"?>
<!DOCTYPE svg PUBLIC "-//W3C//DTD SVG 1.1//EN" "http://www.w3.org/Graphics/SVG/1.1/DTD/svg11.dtd">
<!-- Creator: CorelDRAW X7 -->
<svg xmlns="http://www.w3.org/2000/svg" xml:space="preserve" width="210mm" height="297mm" version="1.1" style="shape-rendering:geometricPrecision; text-rendering:geometricPrecision; image-rendering:optimizeQuality; fill-rule:evenodd; clip-rule:evenodd"
viewBox="0 0 21000 29700"
 xmlns:xlink="http://www.w3.org/1999/xlink"
 enable-background="new 0 0 496 496">
 <defs>
  <style type="text/css">
   <![CDATA[
    .fil1 {fill:#13377E}
    .fil0 {fill:#179BD7}
   ]]>
  </style>
 </defs>
 <g id="Layer_x0020_1">
  <metadata id="CorelCorpID_0Corel-Layer"/>
  <path class="fil0" d="M12684 11693c152,-451 549,-787 1034,-852l326 -762 -1121 -1121 -661 430c-251,-141 -516,-251 -792,-329l-163 -771 -1613 0 -164 771c-275,78 -541,188 -792,329l-661 -430 -1120 1120 320 761c486,65 876,418 1032,874l74 -163c379,-824 1210,-1357 2117,-1357 899,0 1727,526 2109,1340l75 160z"/>
  <path class="fil0" d="M12238 14061l-892 -223 0 -102c395,-275 636,-730 636,-1214l0 -370c0,-823 -645,-1511 -1437,-1535 -405,-13 -787,136 -1077,418 -290,281 -450,659 -450,1063l0 424c0,484 241,939 635,1214l0 102 -891 223c-472,118 -802,540 -802,1027l0 374 591 -132c170,-38 344,-57 518,-57 247,0 492,39 728,114l969 310c104,0 208,14 309,43l1330 380 212 0 423 -223 0 -809c0,-487 -330,-909 -802,-1027z"/>
  <path class="fil1" d="M16569 13801l-692 364c-80,-44 -163,-82 -252,-104l-892 -223 0 -102c395,-275 635,-730 635,-1214l0 -370c0,-823 -644,-1511 -1436,-1535 -405,-12 -787,136 -1077,418 -290,281 -450,659 -450,1063l0 424c0,484 241,939 635,1214l0 102 -847 212 45 11c196,49 366,152 499,289l726 -181 0 -671 -105 -61c-327,-189 -530,-540 -530,-915l0 -424c0,-288 114,-558 322,-759 207,-201 482,-310 769,-298 566,17 1026,515 1026,1111l0 370c0,375 -203,726 -530,916l-106 61 1 670 1058 264 -2804 1475 -129 0 -1302 -372c-102,-29 -208,-40 -314,-44l-958 -307c-436,-140 -909,-161 -1356,-62l-1205 268 128 -396 -1219 -706 481 -120 0 -671 -106 -61c-326,-189 -529,-540 -529,-915l0 -424c0,-288 114,-558 322,-759 207,-201 482,-310 769,-298 566,17 1026,515 1026,1111l0 370c0,375 -203,726 -530,916l-106 61 1 670 726 181c134,-137 303,-240 499,-289l45 -11 -847 -212 0 -102c394,-275 635,-730 635,-1214l0 -370c0,-823 -644,-1511 -1436,-1535 -406,-12 -787,136 -1077,418 -291,281 -450,659 -450,1063l0 424c0,484 240,939 635,1214l0 102 -582 145 -1333 -792 0 495 1686 994 -768 3072 -872 -291 0 446 1623 541 376 135 80 -312 638 383c11,347 289,626 636,639 12,345 289,622 635,635 12,345 289,622 635,635 12,353 302,637 658,637 132,0 262,-41 371,-115l187 166c118,103 269,161 426,161l40 0c352,0 638,-285 643,-636 348,-5 630,-287 635,-635 348,-5 631,-287 635,-636 352,-8 636,-295 636,-649 0,-22 -1,-43 -4,-64l3321 -1660 0 -473 -3497 1748c-11,-12 -23,-24 -36,-35l-1788 -1610c-157,-141 -359,-219 -570,-219 -155,0 -306,42 -439,122l-788 473c-45,26 -95,40 -147,40 -158,0 -286,-128 -286,-285l0 -42c0,-109 61,-207 158,-256l1181 -590c202,-101 442,-124 660,-61l1330 380 322 8 3900 -2054 0 -477zm-10480 4224l-416 -139 746 -2984 500 288 -812 2835 -18 0zm1448 609c0,-62 25,-123 69,-167l372 -373c44,-44 106,-69 168,-69 131,0 237,106 237,237 0,63 -25,124 -69,168l-372 372c-44,44 -106,70 -168,70 -131,0 -237,-107 -237,-238zm635 635c0,-62 25,-123 69,-167l372 -373c44,-44 106,-69 168,-69 131,0 237,106 237,237 0,63 -25,124 -69,168l-372 372c-44,44 -106,70 -168,70 -131,0 -237,-107 -237,-238zm635 635c0,-62 25,-123 69,-167l372 -373c44,-44 106,-69 168,-69 131,0 237,106 237,237 0,63 -25,124 -69,168l-372 372c-44,44 -106,70 -168,70 -131,0 -237,-107 -237,-238zm872 873c-131,0 -237,-107 -237,-238 0,-62 25,-123 69,-167l372 -373c44,-44 106,-69 168,-69 131,0 237,106 237,237 0,63 -25,124 -69,168l-372 372c-44,44 -106,70 -168,70zm1024 211l-40 0c-54,0 -105,-19 -145,-55l-159 -140 159 -159c57,-56 101,-124 134,-196l192 160c50,42 79,104 79,170 0,121 -99,220 -220,220zm1898 -1905l-37 0c-53,0 -105,-18 -145,-53l-1148 -956 -271 325 1114 929c50,42 79,104 79,170 0,121 -99,220 -220,220l-47 0c-51,0 -101,-18 -141,-51l-1149 -958 -272 325 1115 929c50,42 79,104 79,170 0,121 -99,220 -220,220 -82,0 -161,-29 -223,-80l-473 -394c-104,-213 -317,-361 -568,-370 -12,-345 -290,-623 -635,-635 -12,-345 -290,-623 -635,-635 -12,-353 -302,-637 -658,-637 -174,0 -344,70 -467,193l-372 372c-22,22 -41,48 -59,73l-651 -390 570 -1995 1429 -318c375,-84 770,-66 1136,51l312 100 -1057 529c-242,121 -392,364 -392,634l0 42c0,391 318,709 709,709 129,0 255,-35 365,-102l788 -472c158,-95 371,-74 508,49l1788 1609c48,44 75,105 75,170 0,125 -102,227 -227,227z"/>
 </g>
</svg>
