<?xml version="1.0" encoding="utf-8"?>
<!-- Generator: Adobe Illustrator 16.0.0, SVG Export Plug-In . SVG Version: 6.00 Build 0)  -->
<!DOCTYPE svg PUBLIC "-//W3C//DTD SVG 1.1//EN" "http://www.w3.org/Graphics/SVG/1.1/DTD/svg11.dtd">
<svg version="1.1" id="Capa_1" xmlns="http://www.w3.org/2000/svg" xmlns:xlink="http://www.w3.org/1999/xlink" x="0px" y="0px"
	 width="612px" height="792px" viewBox="0 0 612 792" enable-background="new 0 0 612 792" xml:space="preserve">
<path fill="#179BD7" d="M404.709,208.452H69.097c-5.459,0-9.871-4.413-9.871-9.871v-59.226c0-5.459,4.412-9.871,9.871-9.871h335.612
	c5.459,0,9.871,4.412,9.871,9.871v59.226C414.58,204.039,410.168,208.452,404.709,208.452z"/>
<rect x="394.838" y="228.193" fill="#13377E" width="19.742" height="19.742"/>
<rect x="394.838" y="267.677" fill="#13377E" width="19.742" height="19.742"/>
<rect x="394.838" y="307.161" fill="#13377E" width="19.742" height="19.742"/>
<path fill="#13377E" d="M0,90v428.538l143.978,143.979h252.045v-19.742H157.936V603.29h128.322V425.613H78.968v78.968H19.741
	V109.742h434.323v177.677h19.741V90H0z M138.194,628.816L33.699,524.322h104.494V628.816z M98.709,445.354h167.807v138.194h-108.58
	v-78.968H98.709V445.354z"/>
<rect x="118.451" y="465.097" fill="#13377E" width="128.323" height="19.742"/>
<rect x="177.677" y="504.581" fill="#13377E" width="69.098" height="19.741"/>
<rect x="177.677" y="544.064" fill="#13377E" width="69.098" height="19.742"/>
<rect x="59.226" y="228.193" fill="#13377E" width="315.871" height="19.742"/>
<rect x="59.226" y="267.677" fill="#13377E" width="315.871" height="19.742"/>
<rect x="59.226" y="307.161" fill="#13377E" width="315.871" height="19.742"/>
<rect x="59.226" y="346.645" fill="#13377E" width="187.549" height="19.742"/>
<rect x="59.226" y="386.129" fill="#13377E" width="187.549" height="19.742"/>
<rect x="266.516" y="346.645" fill="#13377E" width="19.742" height="19.742"/>
<rect x="266.516" y="386.129" fill="#13377E" width="19.742" height="19.742"/>
<path fill="#179BD7" d="M463.935,702c-1.688,0-3.386-0.435-4.896-1.303l-78.514-44.864c-39.879-22.792-64.655-65.483-64.655-111.413
	V396c0-5.458,4.413-9.871,9.871-9.871h27.53c41.261,0,79.561-20.492,102.451-54.833c3.662-5.498,12.763-5.498,16.425,0
	c22.891,34.341,61.19,54.833,102.451,54.833h27.53c5.458,0,9.871,4.413,9.871,9.871v148.42c0,45.93-24.776,88.621-64.655,111.413
	l-78.514,44.864C467.321,701.565,465.623,702,463.935,702z"/>
<path fill="#FFFFFF" d="M527.751,621.562l-9.792-17.136c21.469-12.279,34.814-35.27,34.814-60.006v-20.098h19.742v20.098
	C572.516,576.225,555.361,605.777,527.751,621.562z"/>
<rect x="552.774" y="484.839" fill="#FFFFFF" width="19.742" height="19.742"/>
<polygon fill="#FFFFFF" points="414.58,587.635 368.117,541.172 382.075,527.215 414.58,559.72 545.795,428.505 559.753,442.463 "/>
</svg>
