<?xml version="1.0" encoding="UTF-8"?>
<!DOCTYPE svg PUBLIC "-//W3C//DTD SVG 1.1//EN" "http://www.w3.org/Graphics/SVG/1.1/DTD/svg11.dtd">
<!-- Creator: CorelDRAW X7 -->
<svg xmlns="http://www.w3.org/2000/svg" xml:space="preserve" width="210mm" height="297mm" version="1.1" style="shape-rendering:geometricPrecision; text-rendering:geometricPrecision; image-rendering:optimizeQuality; fill-rule:evenodd; clip-rule:evenodd"
viewBox="0 0 21000 29700"
 xmlns:xlink="http://www.w3.org/1999/xlink"
 enable-background="new 0 0 512 512">
 <defs>
  <style type="text/css">
   <![CDATA[
    .fil1 {fill:#13377E}
    .fil0 {fill:#179BD7}
   ]]>
  </style>
 </defs>
 <g id="Layer_x0020_1">
  <metadata id="CorelCorpID_0Corel-Layer"/>
  <rect class="fil0" x="9442" y="11675" width="2117" height="847"/>
  <rect class="fil0" x="4362" y="10828" width="3810" height="847"/>
  <rect class="fil0" x="12828" y="8712" width="3810" height="1270"/>
  <path class="fil1" d="M9250 15698c-51,-1 -101,-1 -151,-1 -1161,0 -2409,274 -2409,876l0 3941c0,602 1248,876 2409,876 50,0 100,-1 151,-2 50,1 101,2 151,2 1161,0 2409,-274 2409,-876l0 -3941c0,-602 -1248,-876 -2409,-876 -50,0 -101,0 -151,1zm22 5253l0 -1 -22 0 -22 0 0 1c-42,0 -86,1 -129,1 -1282,0 -1938,-320 -1971,-438l0 -781c466,234 1236,343 1971,343 50,0 100,0 151,-1 50,1 101,1 151,1 735,0 1505,-109 1971,-343l0 781c-33,118 -690,438 -1971,438 -44,0 -87,-1 -129,-1zm-22 -1310l-1 0c-50,0 -100,-1 -150,-3 -1282,0 -1938,-320 -1971,-438l0 0 0 -782c466,235 1235,344 1971,344 50,1 100,0 151,-1 50,1 101,2 151,1 735,0 1505,-109 1971,-344l0 782 0 0c-33,118 -690,438 -1971,438 -50,2 -100,3 -151,3zm22 -1316l0 0 -22 0 -1 0 -21 0 0 0c-43,1 -86,0 -129,-1 -1282,0 -1938,-319 -1971,-438l0 -781c3,2 7,3 10,4 52,26 109,51 169,74 16,6 34,11 50,18 47,16 94,32 144,47 24,7 48,14 72,20 47,13 96,26 146,37 24,6 47,12 72,17 62,13 126,25 191,36l37 7c78,13 157,24 239,34l70 7c59,7 119,13 179,18 28,2 56,4 85,6 59,4 118,8 177,10l78 4c84,3 168,4 252,4 50,0 100,0 151,-1 50,1 101,1 151,1 84,0 168,-1 252,-4l77 -4c60,-2 119,-6 178,-10 28,-2 56,-4 85,-6 60,-5 120,-11 179,-18l70 -7c81,-10 161,-21 239,-34l37 -7c65,-11 129,-23 191,-36 24,-5 48,-11 72,-17 50,-11 98,-24 146,-37 24,-6 48,-13 72,-20 49,-15 97,-31 144,-47 16,-7 34,-12 50,-18 60,-23 116,-48 169,-74 3,-1 7,-2 10,-4l0 781c-33,119 -690,438 -1971,438 -43,1 -86,2 -129,1zm0 -1318l0 -1 -22 1 -22 -1 0 1c-43,1 -87,2 -131,2 -160,0 -311,-6 -451,-14 -981,-63 -1487,-319 -1519,-423 41,-121 697,-437 1972,-437 43,0 86,0 129,1l0 1 22 -1 22 1 0 -1c42,-1 85,-1 129,-1 1275,0 1931,316 1972,437 -32,104 -538,360 -1519,423 -140,8 -291,14 -451,14 -44,0 -88,-1 -131,-2z"/>
  <path class="fil1" d="M11770 8500l-2540 0 0 4233 2540 0 0 -4233zm-423 423l0 2540 -1694 0 0 -2540 1694 0zm-847 3387l-847 0 0 -423 1694 0 0 423 -847 0z"/>
  <path class="fil1" d="M10712 12098c-1,-56 -23,-109 -62,-150 -51,-50 -123,-71 -192,-57 -14,2 -26,6 -38,13 -14,4 -27,11 -39,19 -11,8 -21,16 -31,25 -39,41 -61,94 -62,150 0,117 95,212 212,212 117,0 212,-95 212,-212z"/>
  <polygon class="fil1" points="6478,13157 6055,13157 6055,14427 10288,14427 10288,15273 10712,15273 10712,14427 14945,14427 14945,13157 14522,13157 14522,14003 10712,14003 10712,13157 10288,13157 10288,14003 6478,14003 "/>
  <path class="fil1" d="M5420 12310l-423 0 0 423 2540 0 0 -423 -424 0 0 -423 1270 0 0 -3387 -4233 0 0 3387 1270 0 0 423zm1270 0l-847 0 0 -423 847 0 0 423zm-2117 -3387l3387 0 0 1694 -3387 0 0 -1694zm0 2540l0 -423 3387 0 0 423 -3387 0z"/>
  <path class="fil1" d="M12617 12733l4233 0 0 -4233 -4233 0 0 4233zm3810 -423l-3387 0 0 -2117 3387 0 0 2117zm-3387 -3387l3387 0 0 847 -3387 0 0 -847z"/>
  <path class="fil1" d="M13580 9171c-11,-8 -23,-15 -36,-19 -13,-6 -27,-11 -41,-13 -69,-14 -140,8 -190,57 -19,21 -34,44 -45,70 -33,79 -16,170 45,231 20,19 44,34 70,44 51,23 109,23 161,0 25,-10 49,-25 69,-44 40,-40 62,-94 62,-150 -1,-56 -23,-110 -61,-151 -11,-9 -22,-18 -34,-25z"/>
  <path class="fil1" d="M14249 9196c-85,-78 -216,-78 -301,0 -19,21 -34,44 -44,70 -11,26 -17,53 -17,81 -1,27 5,55 17,80 10,26 25,49 44,70 61,61 152,78 231,44 25,-10 49,-25 70,-44 18,-21 33,-44 44,-70 23,-51 23,-110 0,-161 -11,-25 -26,-49 -44,-70z"/>
  <path class="fil1" d="M14884 9196c-21,-18 -45,-33 -70,-44 -39,-17 -82,-22 -123,-13 -13,3 -26,7 -38,13 -14,5 -27,11 -38,19 -11,8 -22,16 -32,25 -20,20 -35,44 -44,70 -23,51 -23,110 0,161 10,26 25,49 44,70 21,19 44,34 70,44 25,11 53,17 80,17 56,0 110,-22 151,-61 18,-21 33,-44 44,-70 23,-51 23,-110 0,-161 -10,-26 -25,-50 -44,-70z"/>
  <path class="fil0" d="M14273 19311c-1,-131 -17,-263 -48,-390l480 -277 -482 -835 -480 277c-191,-182 -423,-316 -675,-392l0 -553 -965 0 0 553c-252,76 -484,210 -675,392l-480 -277 -482 835 480 277c-63,256 -63,524 0,780l-480 277 482 836 480 -277c191,181 423,315 675,391l0 553 965 0 0 -553c252,-76 484,-210 675,-391l480 277 482 -836 -480 -277c31,-127 47,-258 48,-390zm-1688 723c-399,0 -723,-323 -723,-723 0,-399 324,-723 723,-723 400,0 724,324 724,723 0,400 -324,723 -724,723z"/>
 </g>
</svg>
