<?xml version="1.0" encoding="utf-8"?>
<!-- Generator: Adobe Illustrator 16.0.0, SVG Export Plug-In . SVG Version: 6.00 Build 0)  -->
<!DOCTYPE svg PUBLIC "-//W3C//DTD SVG 1.1//EN" "http://www.w3.org/Graphics/SVG/1.1/DTD/svg11.dtd">
<svg version="1.1" xmlns="http://www.w3.org/2000/svg" xmlns:xlink="http://www.w3.org/1999/xlink" x="0px" y="0px"
	 width="85.039px" height="85.039px" viewBox="0 0 85.039 85.039" enable-background="new 0 0 85.039 85.039" xml:space="preserve">
<g id="Layer_1">
</g>
<g id="Layer_1_1_">
</g>
<g id="Layer_1_2_">
</g>
<g id="Layer_1_3_">
</g>
<g id="Layer_1_4_">
</g>
<g id="Layer_1_5_">
	<g>
		<g>
			
				<polyline fill-rule="evenodd" clip-rule="evenodd" fill="none" stroke="#086AB5" stroke-width="2.0001" stroke-linecap="round" stroke-linejoin="round" stroke-miterlimit="10" points="
				22.752,47.981 22.752,41.645 43.826,41.645 43.826,37.082 			"/>
			
				<polyline fill-rule="evenodd" clip-rule="evenodd" fill="none" stroke="#086AB5" stroke-width="2.0001" stroke-linecap="round" stroke-linejoin="round" stroke-miterlimit="10" points="
				64.9,47.981 64.9,41.645 43.826,41.645 43.826,37.082 			"/>
		</g>
		<g>
			
				<line fill-rule="evenodd" clip-rule="evenodd" fill="none" stroke="#086AB5" stroke-width="2.0001" stroke-linecap="round" stroke-linejoin="round" stroke-miterlimit="10" x1="55.488" y1="31.048" x2="32.164" y2="31.048"/>
			
				<path fill-rule="evenodd" clip-rule="evenodd" fill="none" stroke="#086AB5" stroke-width="2.0001" stroke-linecap="round" stroke-linejoin="round" stroke-miterlimit="10" d="
				M32.164,31.048c-0.307,0-0.561-0.235-0.585-0.54"/>
			
				<line fill-rule="evenodd" clip-rule="evenodd" fill="none" stroke="#086AB5" stroke-width="2.0001" stroke-linecap="round" stroke-linejoin="round" stroke-miterlimit="10" x1="31.579" y1="30.508" x2="30.344" y2="14.934"/>
			
				<path fill-rule="evenodd" clip-rule="evenodd" fill="none" stroke="#086AB5" stroke-width="2.0001" stroke-linecap="round" stroke-linejoin="round" stroke-miterlimit="10" d="
				M30.344,14.934c-0.027-0.341,0.242-0.632,0.585-0.632"/>
			
				<line fill-rule="evenodd" clip-rule="evenodd" fill="none" stroke="#086AB5" stroke-width="2.0001" stroke-linecap="round" stroke-linejoin="round" stroke-miterlimit="10" x1="30.929" y1="14.302" x2="56.724" y2="14.302"/>
			
				<path fill-rule="evenodd" clip-rule="evenodd" fill="none" stroke="#086AB5" stroke-width="2.0001" stroke-linecap="round" stroke-linejoin="round" stroke-miterlimit="10" d="
				M56.724,14.302c0.342,0,0.611,0.291,0.585,0.632"/>
			
				<line fill-rule="evenodd" clip-rule="evenodd" fill="none" stroke="#086AB5" stroke-width="2.0001" stroke-linecap="round" stroke-linejoin="round" stroke-miterlimit="10" x1="57.309" y1="14.934" x2="56.073" y2="30.508"/>
			
				<path fill-rule="evenodd" clip-rule="evenodd" fill="none" stroke="#086AB5" stroke-width="2.0001" stroke-linecap="round" stroke-linejoin="round" stroke-miterlimit="10" d="
				M56.073,30.508c-0.024,0.305-0.278,0.54-0.585,0.54"/>
			
				<line fill-rule="evenodd" clip-rule="evenodd" fill="none" stroke="#086AB5" stroke-width="2.0001" stroke-linecap="round" stroke-linejoin="round" stroke-miterlimit="10" x1="41.693" y1="9.739" x2="41.693" y2="7.668"/>
			
				<path fill-rule="evenodd" clip-rule="evenodd" fill="none" stroke="#086AB5" stroke-width="2.0001" stroke-linecap="round" stroke-linejoin="round" stroke-miterlimit="10" d="
				M41.693,7.668c0-0.324-0.263-0.586-0.587-0.586"/>
			
				<line fill-rule="evenodd" clip-rule="evenodd" fill="none" stroke="#086AB5" stroke-width="2.0001" stroke-linecap="round" stroke-linejoin="round" stroke-miterlimit="10" x1="41.106" y1="7.083" x2="32.983" y2="7.083"/>
			
				<path fill-rule="evenodd" clip-rule="evenodd" fill="none" stroke="#086AB5" stroke-width="2.0001" stroke-linecap="round" stroke-linejoin="round" stroke-miterlimit="10" d="
				M32.983,7.083c-0.324,0-0.587,0.262-0.587,0.586"/>
			
				<polyline fill-rule="evenodd" clip-rule="evenodd" fill="none" stroke="#086AB5" stroke-width="2.0001" stroke-linecap="round" stroke-linejoin="round" stroke-miterlimit="10" points="
				32.396,7.668 32.396,9.517 32.396,14.302 54.975,14.302 54.975,10.325 			"/>
			
				<path fill-rule="evenodd" clip-rule="evenodd" fill="none" stroke="#086AB5" stroke-width="2.0001" stroke-linecap="round" stroke-linejoin="round" stroke-miterlimit="10" d="
				M54.975,10.325c0-0.324-0.263-0.586-0.587-0.586"/>
			
				<line fill-rule="evenodd" clip-rule="evenodd" fill="none" stroke="#086AB5" stroke-width="2.0001" stroke-linecap="round" stroke-linejoin="round" stroke-miterlimit="10" x1="54.388" y1="9.739" x2="41.693" y2="9.739"/>
		</g>
		<g>
			
				<line fill-rule="evenodd" clip-rule="evenodd" fill="none" stroke="#086AB5" stroke-width="2.0001" stroke-linecap="round" stroke-linejoin="round" stroke-miterlimit="10" x1="31.47" y1="77.957" x2="8.146" y2="77.957"/>
			
				<path fill-rule="evenodd" clip-rule="evenodd" fill="none" stroke="#086AB5" stroke-width="2.0001" stroke-linecap="round" stroke-linejoin="round" stroke-miterlimit="10" d="
				M8.146,77.957c-0.307,0-0.561-0.234-0.585-0.539"/>
			
				<line fill-rule="evenodd" clip-rule="evenodd" fill="none" stroke="#086AB5" stroke-width="2.0001" stroke-linecap="round" stroke-linejoin="round" stroke-miterlimit="10" x1="7.561" y1="77.418" x2="6.325" y2="61.844"/>
			
				<path fill-rule="evenodd" clip-rule="evenodd" fill="none" stroke="#086AB5" stroke-width="2.0001" stroke-linecap="round" stroke-linejoin="round" stroke-miterlimit="10" d="
				M6.325,61.844c-0.027-0.341,0.243-0.633,0.585-0.633"/>
			
				<line fill-rule="evenodd" clip-rule="evenodd" fill="none" stroke="#086AB5" stroke-width="2.0001" stroke-linecap="round" stroke-linejoin="round" stroke-miterlimit="10" x1="6.91" y1="61.211" x2="32.705" y2="61.211"/>
			
				<path fill-rule="evenodd" clip-rule="evenodd" fill="none" stroke="#086AB5" stroke-width="2.0001" stroke-linecap="round" stroke-linejoin="round" stroke-miterlimit="10" d="
				M32.705,61.211c0.342,0,0.611,0.292,0.585,0.633"/>
			
				<line fill-rule="evenodd" clip-rule="evenodd" fill="none" stroke="#086AB5" stroke-width="2.0001" stroke-linecap="round" stroke-linejoin="round" stroke-miterlimit="10" x1="33.29" y1="61.844" x2="32.055" y2="77.418"/>
			
				<path fill-rule="evenodd" clip-rule="evenodd" fill="none" stroke="#086AB5" stroke-width="2.0001" stroke-linecap="round" stroke-linejoin="round" stroke-miterlimit="10" d="
				M32.055,77.418c-0.024,0.305-0.278,0.539-0.585,0.539"/>
			
				<line fill-rule="evenodd" clip-rule="evenodd" fill="none" stroke="#086AB5" stroke-width="2.0001" stroke-linecap="round" stroke-linejoin="round" stroke-miterlimit="10" x1="17.675" y1="56.647" x2="17.675" y2="54.578"/>
			
				<path fill-rule="evenodd" clip-rule="evenodd" fill="none" stroke="#086AB5" stroke-width="2.0001" stroke-linecap="round" stroke-linejoin="round" stroke-miterlimit="10" d="
				M17.675,54.578c0-0.324-0.263-0.586-0.587-0.586"/>
			
				<line fill-rule="evenodd" clip-rule="evenodd" fill="none" stroke="#086AB5" stroke-width="2.0001" stroke-linecap="round" stroke-linejoin="round" stroke-miterlimit="10" x1="17.088" y1="53.992" x2="8.965" y2="53.992"/>
			
				<path fill-rule="evenodd" clip-rule="evenodd" fill="none" stroke="#086AB5" stroke-width="2.0001" stroke-linecap="round" stroke-linejoin="round" stroke-miterlimit="10" d="
				M8.965,53.992c-0.324,0-0.587,0.262-0.587,0.586"/>
			
				<polyline fill-rule="evenodd" clip-rule="evenodd" fill="none" stroke="#086AB5" stroke-width="2.0001" stroke-linecap="round" stroke-linejoin="round" stroke-miterlimit="10" points="
				8.378,54.578 8.378,56.426 8.378,61.211 30.956,61.211 30.956,57.234 			"/>
			
				<path fill-rule="evenodd" clip-rule="evenodd" fill="none" stroke="#086AB5" stroke-width="2.0001" stroke-linecap="round" stroke-linejoin="round" stroke-miterlimit="10" d="
				M30.956,57.234c0-0.324-0.263-0.587-0.587-0.587"/>
			
				<line fill-rule="evenodd" clip-rule="evenodd" fill="none" stroke="#086AB5" stroke-width="2.0001" stroke-linecap="round" stroke-linejoin="round" stroke-miterlimit="10" x1="30.369" y1="56.647" x2="17.675" y2="56.647"/>
		</g>
		<g>
			
				<line fill-rule="evenodd" clip-rule="evenodd" fill="none" stroke="#086AB5" stroke-width="2.0001" stroke-linecap="round" stroke-linejoin="round" stroke-miterlimit="10" x1="76.893" y1="77.957" x2="53.568" y2="77.957"/>
			
				<path fill-rule="evenodd" clip-rule="evenodd" fill="none" stroke="#086AB5" stroke-width="2.0001" stroke-linecap="round" stroke-linejoin="round" stroke-miterlimit="10" d="
				M53.568,77.957c-0.306,0-0.561-0.234-0.585-0.539"/>
			
				<line fill-rule="evenodd" clip-rule="evenodd" fill="none" stroke="#086AB5" stroke-width="2.0001" stroke-linecap="round" stroke-linejoin="round" stroke-miterlimit="10" x1="52.983" y1="77.418" x2="51.749" y2="61.844"/>
			
				<path fill-rule="evenodd" clip-rule="evenodd" fill="none" stroke="#086AB5" stroke-width="2.0001" stroke-linecap="round" stroke-linejoin="round" stroke-miterlimit="10" d="
				M51.749,61.844c-0.027-0.341,0.242-0.633,0.584-0.633"/>
			
				<line fill-rule="evenodd" clip-rule="evenodd" fill="none" stroke="#086AB5" stroke-width="2.0001" stroke-linecap="round" stroke-linejoin="round" stroke-miterlimit="10" x1="52.333" y1="61.211" x2="78.128" y2="61.211"/>
			
				<path fill-rule="evenodd" clip-rule="evenodd" fill="none" stroke="#086AB5" stroke-width="2.0001" stroke-linecap="round" stroke-linejoin="round" stroke-miterlimit="10" d="
				M78.128,61.211c0.343,0,0.612,0.292,0.585,0.633"/>
			
				<line fill-rule="evenodd" clip-rule="evenodd" fill="none" stroke="#086AB5" stroke-width="2.0001" stroke-linecap="round" stroke-linejoin="round" stroke-miterlimit="10" x1="78.713" y1="61.844" x2="77.478" y2="77.418"/>
			
				<path fill-rule="evenodd" clip-rule="evenodd" fill="none" stroke="#086AB5" stroke-width="2.0001" stroke-linecap="round" stroke-linejoin="round" stroke-miterlimit="10" d="
				M77.478,77.418c-0.024,0.305-0.278,0.539-0.585,0.539"/>
			
				<line fill-rule="evenodd" clip-rule="evenodd" fill="none" stroke="#086AB5" stroke-width="2.0001" stroke-linecap="round" stroke-linejoin="round" stroke-miterlimit="10" x1="63.098" y1="56.647" x2="63.098" y2="54.578"/>
			
				<path fill-rule="evenodd" clip-rule="evenodd" fill="none" stroke="#086AB5" stroke-width="2.0001" stroke-linecap="round" stroke-linejoin="round" stroke-miterlimit="10" d="
				M63.098,54.578c0-0.324-0.263-0.586-0.586-0.586"/>
			
				<line fill-rule="evenodd" clip-rule="evenodd" fill="none" stroke="#086AB5" stroke-width="2.0001" stroke-linecap="round" stroke-linejoin="round" stroke-miterlimit="10" x1="62.512" y1="53.992" x2="54.388" y2="53.992"/>
			
				<path fill-rule="evenodd" clip-rule="evenodd" fill="none" stroke="#086AB5" stroke-width="2.0001" stroke-linecap="round" stroke-linejoin="round" stroke-miterlimit="10" d="
				M54.388,53.992c-0.324,0-0.586,0.262-0.586,0.586"/>
			
				<polyline fill-rule="evenodd" clip-rule="evenodd" fill="none" stroke="#086AB5" stroke-width="2.0001" stroke-linecap="round" stroke-linejoin="round" stroke-miterlimit="10" points="
				53.802,54.578 53.802,56.426 53.802,61.211 76.379,61.211 76.379,57.234 			"/>
			
				<path fill-rule="evenodd" clip-rule="evenodd" fill="none" stroke="#086AB5" stroke-width="2.0001" stroke-linecap="round" stroke-linejoin="round" stroke-miterlimit="10" d="
				M76.379,57.234c0-0.324-0.263-0.587-0.587-0.587"/>
			
				<line fill-rule="evenodd" clip-rule="evenodd" fill="none" stroke="#086AB5" stroke-width="2.0001" stroke-linecap="round" stroke-linejoin="round" stroke-miterlimit="10" x1="75.792" y1="56.647" x2="63.098" y2="56.647"/>
		</g>
	</g>
</g>
<g id="Layer_1_6_">
</g>
</svg>
