<?xml version="1.0" encoding="utf-8"?>
<!-- Generator: Adobe Illustrator 16.0.0, SVG Export Plug-In . SVG Version: 6.00 Build 0)  -->
<!DOCTYPE svg PUBLIC "-//W3C//DTD SVG 1.1//EN" "http://www.w3.org/Graphics/SVG/1.1/DTD/svg11.dtd">
<svg version="1.1" xmlns="http://www.w3.org/2000/svg" xmlns:xlink="http://www.w3.org/1999/xlink" x="0px" y="0px" width="85.04px"
	 height="85.039px" viewBox="0 0 85.04 85.039" enable-background="new 0 0 85.04 85.039" xml:space="preserve">
<g id="Layer_1">
</g>
<g id="Layer_1_1_">
	<g>
		<g>
			<g>
				<g>
					
						<path fill="none" stroke="#30A9DC" stroke-width="2.0001" stroke-linecap="round" stroke-linejoin="round" stroke-miterlimit="10" d="
						M24.97,46.928c0,10.08,8.172,18.251,18.251,18.251c7.415,0,13.798-4.422,16.653-10.773"/>
					
						<polyline fill="none" stroke="#30A9DC" stroke-width="2.0001" stroke-linecap="round" stroke-linejoin="round" stroke-miterlimit="10" points="
						21.642,50.051 24.97,46.704 29.06,50.001 					"/>
				</g>
			</g>
			<g>
				<g>
					
						<path fill="none" stroke="#30A9DC" stroke-width="2.0001" stroke-linecap="round" stroke-linejoin="round" stroke-miterlimit="10" d="
						M60.458,47.721c0-10.08-8.171-18.251-18.251-18.251c-7.415,0-13.797,4.422-16.653,10.773"/>
					
						<polyline fill="none" stroke="#30A9DC" stroke-width="2.0001" stroke-linecap="round" stroke-linejoin="round" stroke-miterlimit="10" points="
						63.787,44.598 60.458,47.944 56.369,44.647 					"/>
				</g>
			</g>
		</g>
		<g>
			<g>
				
					<path fill="none" stroke="#30A9DC" stroke-width="2.0001" stroke-linecap="round" stroke-linejoin="round" stroke-miterlimit="10" d="
					M40.119,44.567c-1.646,1.646-1.646,4.313,0,5.958c1.645,1.646,4.313,1.646,5.957,0c1.646-1.646,1.646-4.313,0-5.958
					C44.432,42.923,41.764,42.923,40.119,44.567"/>
			</g>
			
				<polyline fill="none" stroke="#30A9DC" stroke-width="2.0001" stroke-linecap="round" stroke-linejoin="round" stroke-miterlimit="10" points="
				33.347,49.262 33.347,45.832 34.998,45.832 			"/>
			
				<path fill="none" stroke="#30A9DC" stroke-width="2.0001" stroke-linecap="round" stroke-linejoin="round" stroke-miterlimit="10" d="
				M34.998,45.832c0.207-0.982,0.592-1.934,1.158-2.802"/>
			
				<polyline fill="none" stroke="#30A9DC" stroke-width="2.0001" stroke-linecap="round" stroke-linejoin="round" stroke-miterlimit="10" points="
				36.156,43.03 34.99,41.864 37.415,39.438 38.581,40.605 			"/>
			
				<path fill="none" stroke="#30A9DC" stroke-width="2.0001" stroke-linecap="round" stroke-linejoin="round" stroke-miterlimit="10" d="
				M38.581,40.605c0.869-0.566,1.82-0.951,2.802-1.158"/>
			
				<polyline fill="none" stroke="#30A9DC" stroke-width="2.0001" stroke-linecap="round" stroke-linejoin="round" stroke-miterlimit="10" points="
				41.383,39.447 41.383,37.795 44.813,37.795 44.813,39.447 			"/>
			
				<path fill="none" stroke="#30A9DC" stroke-width="2.0001" stroke-linecap="round" stroke-linejoin="round" stroke-miterlimit="10" d="
				M44.813,39.447c0.981,0.207,1.933,0.592,2.802,1.158"/>
			
				<polyline fill="none" stroke="#30A9DC" stroke-width="2.0001" stroke-linecap="round" stroke-linejoin="round" stroke-miterlimit="10" points="
				47.614,40.605 48.78,39.438 51.206,41.864 50.039,43.03 			"/>
			
				<path fill="none" stroke="#30A9DC" stroke-width="2.0001" stroke-linecap="round" stroke-linejoin="round" stroke-miterlimit="10" d="
				M50.039,43.03c0.566,0.868,0.952,1.819,1.158,2.802"/>
			
				<polyline fill="none" stroke="#30A9DC" stroke-width="2.0001" stroke-linecap="round" stroke-linejoin="round" stroke-miterlimit="10" points="
				51.197,45.832 52.85,45.832 52.85,49.262 51.197,49.262 			"/>
			
				<path fill="none" stroke="#30A9DC" stroke-width="2.0001" stroke-linecap="round" stroke-linejoin="round" stroke-miterlimit="10" d="
				M51.197,49.262c-0.206,0.981-0.592,1.933-1.158,2.801"/>
			
				<polyline fill="none" stroke="#30A9DC" stroke-width="2.0001" stroke-linecap="round" stroke-linejoin="round" stroke-miterlimit="10" points="
				50.039,52.063 51.206,53.229 48.78,55.654 47.614,54.488 			"/>
			
				<path fill="none" stroke="#30A9DC" stroke-width="2.0001" stroke-linecap="round" stroke-linejoin="round" stroke-miterlimit="10" d="
				M47.614,54.488c-0.869,0.566-1.82,0.951-2.802,1.158"/>
			
				<polyline fill="none" stroke="#30A9DC" stroke-width="2.0001" stroke-linecap="round" stroke-linejoin="round" stroke-miterlimit="10" points="
				44.813,55.646 44.813,57.298 41.383,57.298 41.383,55.646 			"/>
			
				<path fill="none" stroke="#30A9DC" stroke-width="2.0001" stroke-linecap="round" stroke-linejoin="round" stroke-miterlimit="10" d="
				M41.383,55.646c-0.981-0.207-1.933-0.592-2.802-1.158"/>
			
				<polyline fill="none" stroke="#30A9DC" stroke-width="2.0001" stroke-linecap="round" stroke-linejoin="round" stroke-miterlimit="10" points="
				38.581,54.488 37.415,55.654 34.99,53.229 36.156,52.063 			"/>
			
				<path fill="none" stroke="#30A9DC" stroke-width="2.0001" stroke-linecap="round" stroke-linejoin="round" stroke-miterlimit="10" d="
				M36.156,52.063c-0.566-0.868-0.951-1.819-1.158-2.801"/>
			
				<line fill="none" stroke="#30A9DC" stroke-width="2.0001" stroke-linecap="round" stroke-linejoin="round" stroke-miterlimit="10" x1="34.998" y1="49.262" x2="33.347" y2="49.262"/>
		</g>
		
			<line fill="none" stroke="#30A9DC" stroke-width="2.0001" stroke-linecap="round" stroke-linejoin="round" stroke-miterlimit="10" x1="59.463" y1="70.44" x2="8.782" y2="70.44"/>
		
			<path fill="none" stroke="#30A9DC" stroke-width="2.0001" stroke-linecap="round" stroke-linejoin="round" stroke-miterlimit="10" d="
			M8.782,70.44c-0.865,0-1.567-0.702-1.567-1.567"/>
		
			<line fill="none" stroke="#30A9DC" stroke-width="2.0001" stroke-linecap="round" stroke-linejoin="round" stroke-miterlimit="10" x1="7.215" y1="68.873" x2="7.215" y2="16.167"/>
		
			<line fill="none" stroke="#30A9DC" stroke-width="2.0001" stroke-linecap="round" stroke-linejoin="round" stroke-miterlimit="10" x1="8.782" y1="14.599" x2="76.258" y2="14.599"/>
		
			<path fill="none" stroke="#30A9DC" stroke-width="2.0001" stroke-linecap="round" stroke-linejoin="round" stroke-miterlimit="10" d="
			M76.258,14.599c0.865,0,1.567,0.702,1.567,1.567"/>
		
			<line fill="none" stroke="#30A9DC" stroke-width="2.0001" stroke-linecap="round" stroke-linejoin="round" stroke-miterlimit="10" x1="77.825" y1="16.167" x2="77.825" y2="68.873"/>
		
			<path fill="none" stroke="#30A9DC" stroke-width="2.0001" stroke-linecap="round" stroke-linejoin="round" stroke-miterlimit="10" d="
			M77.825,68.873c0,0.865-0.702,1.567-1.567,1.567"/>
		
			<polyline fill="none" stroke="#30A9DC" stroke-width="2.0001" stroke-linecap="round" stroke-linejoin="round" stroke-miterlimit="10" points="
			76.258,70.44 70.309,70.44 59.463,70.44 		"/>
		
			<line fill="none" stroke="#30A9DC" stroke-width="2.0001" stroke-linecap="round" stroke-linejoin="round" stroke-miterlimit="10" x1="7.215" y1="24.984" x2="77.825" y2="24.984"/>
		<circle fill-rule="evenodd" clip-rule="evenodd" fill="#30A9DC" cx="23.423" cy="19.889" r="1.602"/>
		<circle fill-rule="evenodd" clip-rule="evenodd" fill="#30A9DC" cx="18.582" cy="19.889" r="1.602"/>
		<circle fill-rule="evenodd" clip-rule="evenodd" fill="#30A9DC" cx="13.845" cy="19.889" r="1.602"/>
		
			<path fill-rule="evenodd" clip-rule="evenodd" fill="none" stroke="#30A9DC" stroke-width="2.0001" stroke-linecap="round" stroke-linejoin="round" stroke-miterlimit="10" d="
			M8.781,14.599c-0.865,0-1.566,0.702-1.566,1.567"/>
	</g>
</g>
<g id="Layer_1_2_">
</g>
<g id="Layer_1_3_">
</g>
<g id="Layer_1_4_">
</g>
<g id="Layer_1_5_">
</g>
<g id="Layer_1_6_">
</g>
</svg>
