<?xml version="1.0" encoding="utf-8"?>
<!-- Generator: Adobe Illustrator 16.0.0, SVG Export Plug-In . SVG Version: 6.00 Build 0)  -->
<!DOCTYPE svg PUBLIC "-//W3C//DTD SVG 1.1//EN" "http://www.w3.org/Graphics/SVG/1.1/DTD/svg11.dtd">
<svg version="1.1" xmlns="http://www.w3.org/2000/svg" xmlns:xlink="http://www.w3.org/1999/xlink" x="0px" y="0px"
	 width="85.039px" height="85.039px" viewBox="0 0 85.039 85.039" enable-background="new 0 0 85.039 85.039" xml:space="preserve">
<g id="Layer_1">
	<g>
		<g>
			
				<path fill="none" stroke="#30A9DC" stroke-width="2.0001" stroke-linecap="round" stroke-linejoin="round" stroke-miterlimit="10" d="
				M13.702,50.934c0-1.211,0.124-2.394,0.35-3.538"/>
			
				<polyline fill="none" stroke="#30A9DC" stroke-width="2.0001" stroke-linecap="round" stroke-linejoin="round" stroke-miterlimit="10" points="
				14.051,47.396 9.401,45.102 13.593,36.605 17.926,38.906 			"/>
			
				<path fill="none" stroke="#30A9DC" stroke-width="2.0001" stroke-linecap="round" stroke-linejoin="round" stroke-miterlimit="10" d="
				M17.926,38.906c2.335-2.653,5.958-4.614,8.606-5.559"/>
			
				<polyline fill="none" stroke="#30A9DC" stroke-width="2.0001" stroke-linecap="round" stroke-linejoin="round" stroke-miterlimit="10" points="
				26.532,33.348 26.532,29.279 35.801,29.279 35.801,33.348 			"/>
			
				<path fill="none" stroke="#30A9DC" stroke-width="2.0001" stroke-linecap="round" stroke-linejoin="round" stroke-miterlimit="10" d="
				M35.801,33.348c3.973,0.945,7.036,2.906,9.372,5.559"/>
			
				<polyline fill="none" stroke="#30A9DC" stroke-width="2.0001" stroke-linecap="round" stroke-linejoin="round" stroke-miterlimit="10" points="
				45.173,38.906 50.054,36.605 54.354,45.102 49.758,47.396 			"/>
			
				<path fill="none" stroke="#30A9DC" stroke-width="2.0001" stroke-linecap="round" stroke-linejoin="round" stroke-miterlimit="10" d="
				M49.758,47.396c0.226,1.145,0.377,2.327,0.377,3.538s-0.111,2.393-0.336,3.538"/>
			
				<polyline fill="none" stroke="#30A9DC" stroke-width="2.0001" stroke-linecap="round" stroke-linejoin="round" stroke-miterlimit="10" points="
				49.799,54.472 54.455,56.766 50.268,65.262 45.171,62.961 			"/>
			
				<path fill="none" stroke="#30A9DC" stroke-width="2.0001" stroke-linecap="round" stroke-linejoin="round" stroke-miterlimit="10" d="
				M45.171,62.961c-2.335,2.653-5.397,4.614-9.37,5.559"/>
			
				<polyline fill="none" stroke="#30A9DC" stroke-width="2.0001" stroke-linecap="round" stroke-linejoin="round" stroke-miterlimit="10" points="
				35.801,68.52 35.801,72.973 26.532,72.973 26.532,68.52 			"/>
			
				<path fill="none" stroke="#30A9DC" stroke-width="2.0001" stroke-linecap="round" stroke-linejoin="round" stroke-miterlimit="10" d="
				M26.532,68.52c-2.648-0.944-6.271-2.905-8.606-5.559"/>
			
				<polyline fill="none" stroke="#30A9DC" stroke-width="2.0001" stroke-linecap="round" stroke-linejoin="round" stroke-miterlimit="10" points="
				17.926,62.961 13.427,65.262 9.318,56.766 14.01,54.472 			"/>
			
				<path fill="none" stroke="#30A9DC" stroke-width="2.0001" stroke-linecap="round" stroke-linejoin="round" stroke-miterlimit="10" d="
				M14.01,54.472c-0.225-1.146-0.308-2.327-0.308-3.538"/>
			
				<path fill="none" stroke="#30A9DC" stroke-width="2.0001" stroke-linecap="round" stroke-linejoin="round" stroke-miterlimit="10" d="
				M23,50.835c0,4.991,4.046,9.037,9.038,9.037s9.038-4.046,9.038-9.037c0-4.992-4.046-9.038-9.038-9.038S23,45.843,23,50.835"/>
			
				<path fill="none" stroke="#30A9DC" stroke-width="2.0001" stroke-linecap="round" stroke-linejoin="round" stroke-miterlimit="10" d="
				M46.298,23.221c0-0.627,0.064-1.24,0.182-1.833"/>
			
				<polyline fill="none" stroke="#30A9DC" stroke-width="2.0001" stroke-linecap="round" stroke-linejoin="round" stroke-miterlimit="10" points="
				46.479,21.388 44.07,20.2 46.241,15.797 48.521,16.989 			"/>
			
				<path fill="none" stroke="#30A9DC" stroke-width="2.0001" stroke-linecap="round" stroke-linejoin="round" stroke-miterlimit="10" d="
				M48.521,16.989c1.21-1.375,3.169-2.39,4.493-2.88"/>
			
				<polyline fill="none" stroke="#30A9DC" stroke-width="2.0001" stroke-linecap="round" stroke-linejoin="round" stroke-miterlimit="10" points="
				53.014,14.109 53.014,12.066 58.311,12.066 58.311,14.109 			"/>
			
				<path fill="none" stroke="#30A9DC" stroke-width="2.0001" stroke-linecap="round" stroke-linejoin="round" stroke-miterlimit="10" d="
				M58.311,14.109c1.323,0.49,3.364,1.505,4.574,2.88"/>
			
				<polyline fill="none" stroke="#30A9DC" stroke-width="2.0001" stroke-linecap="round" stroke-linejoin="round" stroke-miterlimit="10" points="
				62.885,16.989 65.273,15.797 67.431,20.2 65.015,21.388 			"/>
			
				<path fill="none" stroke="#30A9DC" stroke-width="2.0001" stroke-linecap="round" stroke-linejoin="round" stroke-miterlimit="10" d="
				M65.015,21.388c0.117,0.593,0.178,1.206,0.178,1.833c0,0.628-0.066,1.24-0.184,1.833"/>
			
				<polyline fill="none" stroke="#30A9DC" stroke-width="2.0001" stroke-linecap="round" stroke-linejoin="round" stroke-miterlimit="10" points="
				65.009,25.055 67.418,26.243 65.245,30.646 62.885,29.454 			"/>
			
				<path fill="none" stroke="#30A9DC" stroke-width="2.0001" stroke-linecap="round" stroke-linejoin="round" stroke-miterlimit="10" d="
				M62.885,29.454c-1.21,1.374-3.251,2.39-4.574,2.879"/>
			
				<polyline fill="none" stroke="#30A9DC" stroke-width="2.0001" stroke-linecap="round" stroke-linejoin="round" stroke-miterlimit="10" points="
				58.311,32.333 58.311,34.576 53.014,34.576 53.014,32.333 			"/>
			
				<path fill="none" stroke="#30A9DC" stroke-width="2.0001" stroke-linecap="round" stroke-linejoin="round" stroke-miterlimit="10" d="
				M53.014,32.333c-1.324-0.489-3.283-1.505-4.493-2.879"/>
			
				<polyline fill="none" stroke="#30A9DC" stroke-width="2.0001" stroke-linecap="round" stroke-linejoin="round" stroke-miterlimit="10" points="
				48.521,29.454 46.173,30.646 44.035,26.243 46.462,25.055 			"/>
			
				<path fill="none" stroke="#30A9DC" stroke-width="2.0001" stroke-linecap="round" stroke-linejoin="round" stroke-miterlimit="10" d="
				M46.462,25.055c-0.117-0.594-0.164-1.206-0.164-1.833"/>
			
				<path fill="none" stroke="#30A9DC" stroke-width="2.0001" stroke-linecap="round" stroke-linejoin="round" stroke-miterlimit="10" d="
				M51.115,23.17c0,2.586,2.098,4.683,4.683,4.683c2.587,0,4.684-2.097,4.684-4.683s-2.097-4.683-4.684-4.683
				C53.213,18.487,51.115,20.583,51.115,23.17"/>
		</g>
		<g>
			
				<line fill="none" stroke="#30A9DC" stroke-width="2.0001" stroke-linecap="round" stroke-linejoin="round" stroke-miterlimit="10" x1="59.144" y1="43.011" x2="61.365" y2="54.12"/>
			
				<path fill="none" stroke="#30A9DC" stroke-width="2.0001" stroke-linecap="round" stroke-linejoin="round" stroke-miterlimit="10" d="
				M61.365,54.12c0.238,1.19,1.708,1.636,2.567,0.777"/>
			
				<polyline fill="none" stroke="#30A9DC" stroke-width="2.0001" stroke-linecap="round" stroke-linejoin="round" stroke-miterlimit="10" points="
				63.933,54.897 66.225,52.604 70.527,56.907 			"/>
			
				<path fill="none" stroke="#30A9DC" stroke-width="2.0001" stroke-linecap="round" stroke-linejoin="round" stroke-miterlimit="10" d="
				M70.527,56.907c1.188,1.188,3.114,1.188,4.302,0"/>
			
				<path fill="none" stroke="#30A9DC" stroke-width="2.0001" stroke-linecap="round" stroke-linejoin="round" stroke-miterlimit="10" d="
				M74.829,56.907c1.188-1.188,1.188-3.114,0-4.303"/>
			
				<polyline fill="none" stroke="#30A9DC" stroke-width="2.0001" stroke-linecap="round" stroke-linejoin="round" stroke-miterlimit="10" points="
				74.829,52.604 70.527,48.302 72.819,46.01 			"/>
			
				<path fill="none" stroke="#30A9DC" stroke-width="2.0001" stroke-linecap="round" stroke-linejoin="round" stroke-miterlimit="10" d="
				M72.819,46.01c0.859-0.859,0.415-2.329-0.776-2.567"/>
			
				<line fill="none" stroke="#30A9DC" stroke-width="2.0001" stroke-linecap="round" stroke-linejoin="round" stroke-miterlimit="10" x1="72.043" y1="43.442" x2="60.934" y2="41.221"/>
			
				<path fill="none" stroke="#30A9DC" stroke-width="2.0001" stroke-linecap="round" stroke-linejoin="round" stroke-miterlimit="10" d="
				M60.934,41.221c-1.064-0.213-2.003,0.726-1.79,1.79"/>
		</g>
	</g>
</g>
<g id="Layer_1_1_">
</g>
<g id="Layer_1_2_">
</g>
<g id="Layer_1_3_">
</g>
<g id="Layer_1_4_">
</g>
<g id="Layer_1_5_">
</g>
<g id="Layer_1_6_">
</g>
</svg>
