<?xml version="1.0" encoding="utf-8"?>
<!-- Generator: Adobe Illustrator 16.0.0, SVG Export Plug-In . SVG Version: 6.00 Build 0)  -->
<!DOCTYPE svg PUBLIC "-//W3C//DTD SVG 1.1//EN" "http://www.w3.org/Graphics/SVG/1.1/DTD/svg11.dtd">
<svg version="1.1" xmlns="http://www.w3.org/2000/svg" xmlns:xlink="http://www.w3.org/1999/xlink" x="0px" y="0px"
	 width="85.039px" height="85.039px" viewBox="0 0 85.039 85.039" enable-background="new 0 0 85.039 85.039" xml:space="preserve">
<g id="Layer_1">
</g>
<g id="Layer_1_1_">
</g>
<g id="Layer_1_2_">
</g>
<g id="Layer_1_3_">
	<g>
		
			<path fill-rule="evenodd" clip-rule="evenodd" fill="none" stroke="#086AB5" stroke-width="1.9199" stroke-linecap="round" stroke-linejoin="round" stroke-miterlimit="22.9256" d="
			M42.614,77.744H12.542c-0.544,0-0.983-0.439-0.983-0.981V35.191c0-0.542,0.439-0.982,0.983-0.982l30.072,0
			c0.542,0,0.981,0.44,0.981,0.982v41.572C43.596,77.305,43.156,77.744,42.614,77.744z"/>
		
			<path fill-rule="evenodd" clip-rule="evenodd" fill="none" stroke="#086AB5" stroke-width="1.9199" stroke-linecap="round" stroke-linejoin="round" stroke-miterlimit="22.9256" d="
			M38.406,46.976H16.749c-0.544,0-0.983-0.439-0.983-0.982v-5.565c0-0.542,0.439-0.982,0.983-0.982l21.657,0
			c0.543,0,0.982,0.439,0.982,0.982v5.566C39.387,46.536,38.949,46.976,38.406,46.976z"/>
		
			<path fill-rule="evenodd" clip-rule="evenodd" fill="none" stroke="#086AB5" stroke-width="1.9199" stroke-linecap="round" stroke-linejoin="round" stroke-miterlimit="22.9256" d="
			M20.62,56.348h-2.78c-0.543,0-0.984-0.44-0.984-0.982v-2.782c0-0.542,0.441-0.982,0.984-0.982l2.78-0.001
			c0.544,0,0.984,0.44,0.984,0.982v2.782C21.604,55.907,21.164,56.348,20.62,56.348z"/>
		
			<path fill-rule="evenodd" clip-rule="evenodd" fill="none" stroke="#086AB5" stroke-width="1.9199" stroke-linecap="round" stroke-linejoin="round" stroke-miterlimit="22.9256" d="
			M28.969,56.348h-2.782c-0.542,0-0.982-0.44-0.982-0.982v-2.782c0-0.542,0.44-0.982,0.982-0.982l2.782-0.001
			c0.542,0,0.982,0.44,0.982,0.982v2.782C29.95,55.907,29.511,56.348,28.969,56.348z"/>
		
			<path fill-rule="evenodd" clip-rule="evenodd" fill="none" stroke="#086AB5" stroke-width="1.9199" stroke-linecap="round" stroke-linejoin="round" stroke-miterlimit="22.9256" d="
			M37.314,56.348h-2.782c-0.54,0-0.98-0.44-0.98-0.982v-2.782c0-0.542,0.44-0.982,0.98-0.982l2.782-0.001
			c0.543,0,0.983,0.44,0.983,0.982v2.782C38.298,55.907,37.857,56.348,37.314,56.348z"/>
		
			<path fill-rule="evenodd" clip-rule="evenodd" fill="none" stroke="#086AB5" stroke-width="1.9199" stroke-linecap="round" stroke-linejoin="round" stroke-miterlimit="22.9256" d="
			M20.62,64.408h-2.78c-0.543,0-0.984-0.439-0.984-0.983v-2.781c0-0.542,0.441-0.982,0.984-0.982h2.78
			c0.544,0,0.984,0.44,0.984,0.982v2.781C21.604,63.97,21.164,64.408,20.62,64.408z"/>
		
			<path fill-rule="evenodd" clip-rule="evenodd" fill="none" stroke="#086AB5" stroke-width="1.9199" stroke-linecap="round" stroke-linejoin="round" stroke-miterlimit="22.9256" d="
			M28.969,64.408h-2.782c-0.542,0-0.982-0.439-0.982-0.983v-2.781c0-0.542,0.44-0.982,0.982-0.982h2.782
			c0.542,0,0.982,0.44,0.982,0.982v2.781C29.95,63.97,29.511,64.408,28.969,64.408z"/>
		
			<path fill-rule="evenodd" clip-rule="evenodd" fill="none" stroke="#086AB5" stroke-width="1.9199" stroke-linecap="round" stroke-linejoin="round" stroke-miterlimit="22.9256" d="
			M37.314,64.408h-2.782c-0.54,0-0.98-0.439-0.98-0.983v-2.781c0-0.542,0.44-0.982,0.98-0.982h2.782c0.543,0,0.983,0.44,0.983,0.982
			v2.781C38.298,63.97,37.857,64.408,37.314,64.408z"/>
		
			<path fill-rule="evenodd" clip-rule="evenodd" fill="none" stroke="#086AB5" stroke-width="1.9199" stroke-linecap="round" stroke-linejoin="round" stroke-miterlimit="22.9256" d="
			M20.62,72.633h-2.78c-0.543,0-0.984-0.44-0.984-0.981v-2.782c0-0.541,0.441-0.982,0.984-0.982h2.78
			c0.544,0,0.984,0.44,0.984,0.982v2.781C21.604,72.193,21.164,72.633,20.62,72.633z"/>
		
			<path fill-rule="evenodd" clip-rule="evenodd" fill="none" stroke="#086AB5" stroke-width="1.9199" stroke-linecap="round" stroke-linejoin="round" stroke-miterlimit="22.9256" d="
			M28.969,72.633h-2.782c-0.542,0-0.982-0.44-0.982-0.981v-2.782c0-0.541,0.44-0.982,0.982-0.982h2.782
			c0.542,0,0.982,0.44,0.982,0.982v2.781C29.95,72.193,29.511,72.633,28.969,72.633z"/>
		
			<path fill-rule="evenodd" clip-rule="evenodd" fill="none" stroke="#086AB5" stroke-width="1.9199" stroke-linecap="round" stroke-linejoin="round" stroke-miterlimit="22.9256" d="
			M37.314,72.633h-2.782c-0.54,0-0.98-0.44-0.98-0.981v-2.782c0-0.541,0.44-0.982,0.98-0.982h2.782c0.543,0,0.983,0.44,0.983,0.982
			v2.781C38.298,72.193,37.857,72.633,37.314,72.633z"/>
		
			<line fill-rule="evenodd" clip-rule="evenodd" fill="none" stroke="#086AB5" stroke-width="2.0001" stroke-linecap="round" stroke-linejoin="round" stroke-miterlimit="10" x1="37.601" y1="24.043" x2="66.765" y2="24.043"/>
		
			<line fill-rule="evenodd" clip-rule="evenodd" fill="none" stroke="#086AB5" stroke-width="2.0001" stroke-linecap="round" stroke-linejoin="round" stroke-miterlimit="10" x1="48.104" y1="31.189" x2="66.765" y2="31.189"/>
		
			<polyline fill-rule="evenodd" clip-rule="evenodd" fill="none" stroke="#086AB5" stroke-width="1.9199" stroke-linecap="round" stroke-linejoin="round" stroke-miterlimit="10" points="
			43.596,70.585 63.862,70.585 73.48,60.96 73.48,7.295 30.794,7.295 30.792,34.209 		"/>
		
			<polygon fill-rule="evenodd" clip-rule="evenodd" fill="none" stroke="#086AB5" stroke-width="1.9199" stroke-linecap="round" stroke-linejoin="round" stroke-miterlimit="10" points="
			73.48,60.959 63.863,60.959 63.863,70.585 		"/>
		<path fill-rule="evenodd" clip-rule="evenodd" fill="#086AB5" d="M50.225,59.367v1.312h5.359v1.255h-5.359v3.392h-1.779v-3.382
			h-0.919v-1.265h0.919v-1.312h-0.919V57.83h0.919v-5.921h4.2c1.202,0,2.11,0.122,2.727,0.365c0.621,0.237,1.117,0.662,1.489,1.271
			c0.371,0.612,0.559,1.286,0.559,2.023c0,0.743-0.138,1.361-0.412,1.849s-0.637,0.878-1.093,1.165
			c-0.453,0.29-0.975,0.493-1.562,0.609c-0.59,0.115-1.196,0.175-1.824,0.175H50.225L50.225,59.367z M52.526,57.83
			c0.406,0,0.797-0.031,1.168-0.097c0.372-0.063,0.697-0.181,0.978-0.353c0.278-0.169,0.5-0.4,0.665-0.69
			c0.166-0.29,0.247-0.665,0.247-1.121c0-0.396-0.075-0.733-0.226-1.009c-0.146-0.274-0.353-0.496-0.608-0.671
			c-0.259-0.175-0.563-0.3-0.909-0.382c-0.346-0.077-0.721-0.118-1.124-0.118h-2.492v4.44H52.526z"/>
		
			<line fill-rule="evenodd" clip-rule="evenodd" fill="none" stroke="#086AB5" stroke-width="2.0001" stroke-linecap="round" stroke-linejoin="round" stroke-miterlimit="10" x1="48.104" y1="38.334" x2="66.765" y2="38.334"/>
		
			<line fill-rule="evenodd" clip-rule="evenodd" fill="none" stroke="#086AB5" stroke-width="2.0001" stroke-linecap="round" stroke-linejoin="round" stroke-miterlimit="10" x1="48.104" y1="45.479" x2="66.765" y2="45.479"/>
		
			<line fill-rule="evenodd" clip-rule="evenodd" fill="none" stroke="#086AB5" stroke-width="2.0001" stroke-linecap="round" stroke-linejoin="round" stroke-miterlimit="10" x1="37.375" y1="16.898" x2="66.765" y2="16.898"/>
	</g>
</g>
<g id="Layer_1_4_">
</g>
<g id="Layer_1_5_">
</g>
<g id="Layer_1_6_">
</g>
</svg>
