<?xml version="1.0" encoding="utf-8"?>
<!-- Generator: Adobe Illustrator 16.0.0, SVG Export Plug-In . SVG Version: 6.00 Build 0)  -->
<!DOCTYPE svg PUBLIC "-//W3C//DTD SVG 1.1//EN" "http://www.w3.org/Graphics/SVG/1.1/DTD/svg11.dtd">
<svg version="1.1" xmlns="http://www.w3.org/2000/svg" xmlns:xlink="http://www.w3.org/1999/xlink" x="0px" y="0px" width="85.04px"
	 height="85.039px" viewBox="0 0 85.04 85.039" enable-background="new 0 0 85.04 85.039" xml:space="preserve">
<g id="Layer_1">
</g>
<g id="Layer_1_1_">
</g>
<g id="Layer_1_2_">
</g>
<g id="Layer_1_3_">
</g>
<g id="Layer_1_4_">
	<g>
		
			<rect x="8.747" y="42.484" fill-rule="evenodd" clip-rule="evenodd" fill="none" stroke="#086AB5" stroke-width="2.0001" stroke-linecap="round" stroke-linejoin="round" stroke-miterlimit="10" width="6.252" height="16.7"/>
		
			<rect x="20.012" y="38.624" fill-rule="evenodd" clip-rule="evenodd" fill="none" stroke="#086AB5" stroke-width="2.0001" stroke-linecap="round" stroke-linejoin="round" stroke-miterlimit="10" width="6.252" height="20.56"/>
		
			<polygon fill-rule="evenodd" clip-rule="evenodd" fill="none" stroke="#086AB5" stroke-width="2.0001" stroke-linecap="round" stroke-linejoin="round" stroke-miterlimit="10" points="
			34.403,26.758 29.091,33.007 31.276,33.007 31.276,59.184 37.529,59.184 37.529,33.007 39.715,33.007 		"/>
		
			<path fill-rule="evenodd" clip-rule="evenodd" fill="none" stroke="#086AB5" stroke-width="2.0001" stroke-linecap="round" stroke-linejoin="round" stroke-miterlimit="10" d="
			M84.985,55.526c0,10.965-8.889,19.853-19.853,19.853c-10.965,0-19.853-8.888-19.853-19.853s8.888-19.853,19.853-19.853
			C76.097,35.673,84.985,44.562,84.985,55.526"/>
		
			<line fill-rule="evenodd" clip-rule="evenodd" fill="none" stroke="#086AB5" stroke-width="2.0001" stroke-linecap="round" stroke-linejoin="round" stroke-miterlimit="10" x1="47.32" y1="65.502" x2="1.622" y2="65.502"/>
		
			<path fill-rule="evenodd" clip-rule="evenodd" fill="none" stroke="#086AB5" stroke-width="2.0001" stroke-linecap="round" stroke-linejoin="round" stroke-miterlimit="10" d="
			M3.747,64.085c-0.787,0-1.425-0.639-1.425-1.426"/>
		
			<line fill-rule="evenodd" clip-rule="evenodd" fill="none" stroke="#086AB5" stroke-width="2.0001" stroke-linecap="round" stroke-linejoin="round" stroke-miterlimit="10" x1="0.055" y1="63.935" x2="0.055" y2="11.228"/>
		
			<line fill-rule="evenodd" clip-rule="evenodd" fill="none" stroke="#086AB5" stroke-width="2.0001" stroke-linecap="round" stroke-linejoin="round" stroke-miterlimit="10" x1="1.622" y1="9.661" x2="69.098" y2="9.661"/>
		
			<path fill-rule="evenodd" clip-rule="evenodd" fill="none" stroke="#086AB5" stroke-width="2.0001" stroke-linecap="round" stroke-linejoin="round" stroke-miterlimit="10" d="
			M69.098,9.661c0.865,0,1.567,0.702,1.567,1.567"/>
		
			<line fill-rule="evenodd" clip-rule="evenodd" fill="none" stroke="#086AB5" stroke-width="2.0001" stroke-linecap="round" stroke-linejoin="round" stroke-miterlimit="10" x1="70.665" y1="11.228" x2="70.665" y2="36.053"/>
		
			<line fill-rule="evenodd" clip-rule="evenodd" fill="none" stroke="#086AB5" stroke-width="2.0001" stroke-linecap="round" stroke-linejoin="round" stroke-miterlimit="10" x1="0.055" y1="20.045" x2="70.665" y2="20.045"/>
		<circle fill-rule="evenodd" clip-rule="evenodd" fill="#086AB5" cx="16.262" cy="14.951" r="1.602"/>
		<circle fill-rule="evenodd" clip-rule="evenodd" fill="#086AB5" cx="11.422" cy="14.951" r="1.602"/>
		<circle fill-rule="evenodd" clip-rule="evenodd" fill="#086AB5" cx="6.685" cy="14.951" r="1.602"/>
		
			<path fill-rule="evenodd" clip-rule="evenodd" fill="none" stroke="#086AB5" stroke-width="2.0001" stroke-linecap="round" stroke-linejoin="round" stroke-miterlimit="10" d="
			M1.622,9.661c-0.866,0-1.567,0.702-1.567,1.567"/>
		<path fill-rule="evenodd" clip-rule="evenodd" fill="#086AB5" d="M62.688,56.414v1.843h7.529v1.764h-7.529v4.766h-2.502v-4.752
			h-1.29v-1.777h1.29v-1.843h-1.29v-2.159h1.29v-8.32h5.902c1.689,0,2.967,0.172,3.831,0.514c0.873,0.334,1.57,0.931,2.093,1.786
			c0.522,0.86,0.786,1.808,0.786,2.844c0,1.044-0.193,1.913-0.58,2.598c-0.386,0.685-0.895,1.233-1.535,1.637
			c-0.637,0.408-1.369,0.693-2.194,0.855c-0.829,0.162-1.681,0.246-2.563,0.246H62.688L62.688,56.414z M65.922,54.255
			c0.571,0,1.119-0.044,1.642-0.136c0.521-0.088,0.979-0.255,1.373-0.496c0.391-0.237,0.702-0.562,0.935-0.97
			s0.347-0.935,0.347-1.575c0-0.558-0.105-1.031-0.315-1.418c-0.206-0.386-0.496-0.697-0.856-0.943
			c-0.363-0.245-0.789-0.421-1.276-0.535c-0.487-0.109-1.014-0.167-1.58-0.167h-3.501v6.24H65.922z"/>
	</g>
</g>
<g id="Layer_1_5_">
</g>
<g id="Layer_1_6_">
</g>
</svg>
