<?xml version="1.0" encoding="utf-8"?>
<!-- Generator: Adobe Illustrator 16.0.0, SVG Export Plug-In . SVG Version: 6.00 Build 0)  -->
<!DOCTYPE svg PUBLIC "-//W3C//DTD SVG 1.1//EN" "http://www.w3.org/Graphics/SVG/1.1/DTD/svg11.dtd">
<svg version="1.1" xmlns="http://www.w3.org/2000/svg" xmlns:xlink="http://www.w3.org/1999/xlink" x="0px" y="0px"
	 width="85.039px" height="85.039px" viewBox="0 0 85.039 85.039" enable-background="new 0 0 85.039 85.039" xml:space="preserve">
<g id="Layer_1">
</g>
<g id="Layer_1_1_">
</g>
<g id="Layer_1_2_">
</g>
<g id="Layer_1_3_">
</g>
<g id="Layer_1_4_">
</g>
<g id="Layer_1_5_">
</g>
<g id="Layer_1_6_">
	<g>
		
			<polyline fill-rule="evenodd" clip-rule="evenodd" fill="none" stroke="#086AB5" stroke-width="2.0001" stroke-linecap="round" stroke-linejoin="round" stroke-miterlimit="10" points="
			70.996,60.611 70.996,67.838 3.826,67.838 3.826,28.59 15.225,17.201 70.996,17.201 70.996,33.78 		"/>
		
			<polygon fill-rule="evenodd" clip-rule="evenodd" fill="none" stroke="#086AB5" stroke-width="2.0001" stroke-linecap="round" stroke-linejoin="round" stroke-miterlimit="10" points="
			15.225,17.201 15.225,28.589 3.826,28.589 		"/>
		
			<path fill-rule="evenodd" clip-rule="evenodd" fill="none" stroke="#086AB5" stroke-width="2.0001" stroke-linecap="round" stroke-linejoin="round" stroke-miterlimit="10" d="
			M54.834,47.225c0,7.285,5.905,13.189,13.189,13.189s13.189-5.904,13.189-13.189c0-7.284-5.905-13.189-13.189-13.189"/>
		
			<polyline fill-rule="evenodd" clip-rule="evenodd" fill="none" stroke="#086AB5" stroke-width="2.0001" stroke-linecap="round" stroke-linejoin="round" stroke-miterlimit="10" points="
			68.023,34.035 68.023,47.225 54.834,47.225 		"/>
		
			<polyline fill-rule="evenodd" clip-rule="evenodd" fill="none" stroke="#086AB5" stroke-width="2.0001" stroke-linecap="round" stroke-linejoin="round" stroke-miterlimit="10" points="
			50.713,42.781 63.902,42.781 63.902,29.592 		"/>
		
			<path fill-rule="evenodd" clip-rule="evenodd" fill="none" stroke="#086AB5" stroke-width="2.0001" stroke-linecap="round" stroke-linejoin="round" stroke-miterlimit="10" d="
			M63.902,29.592c-7.284,0-13.189,5.905-13.189,13.189"/>
		
			<rect x="11.589" y="43.098" fill-rule="evenodd" clip-rule="evenodd" fill="none" stroke="#086AB5" stroke-width="2.0001" stroke-linecap="round" stroke-linejoin="round" stroke-miterlimit="10" width="6.706" height="17.536"/>
		
			<rect x="36.634" y="34.813" fill-rule="evenodd" clip-rule="evenodd" fill="none" stroke="#086AB5" stroke-width="2.0001" stroke-linecap="round" stroke-linejoin="round" stroke-miterlimit="10" width="6.706" height="25.821"/>
		
			<rect x="23.989" y="25.634" fill-rule="evenodd" clip-rule="evenodd" fill="none" stroke="#086AB5" stroke-width="2.0001" stroke-linecap="round" stroke-linejoin="round" stroke-miterlimit="10" width="6.707" height="35"/>
	</g>
</g>
</svg>
