<?xml version="1.0" encoding="utf-8"?>
<!-- Generator: Adobe Illustrator 16.0.0, SVG Export Plug-In . SVG Version: 6.00 Build 0)  -->
<!DOCTYPE svg PUBLIC "-//W3C//DTD SVG 1.1//EN" "http://www.w3.org/Graphics/SVG/1.1/DTD/svg11.dtd">
<svg version="1.1" xmlns="http://www.w3.org/2000/svg" xmlns:xlink="http://www.w3.org/1999/xlink" x="0px" y="0px"
	 width="85.039px" height="85.039px" viewBox="0 0 85.039 85.039" enable-background="new 0 0 85.039 85.039" xml:space="preserve">
<g id="Layer_1">
</g>
<g id="Layer_1_1_">
</g>
<g id="Layer_1_2_">
	<g>
		<g>
			<g>
				
					<path fill-rule="evenodd" clip-rule="evenodd" fill="none" stroke="#30A9DC" stroke-width="2.0001" stroke-linecap="round" stroke-linejoin="round" stroke-miterlimit="10" d="
					M64.787,56.533c2.476,2.477,2.476,6.49,0,8.966s-6.489,2.476-8.965,0s-2.476-6.489,0-8.966
					C58.298,54.058,62.312,54.058,64.787,56.533"/>
			</g>
			
				<polyline fill-rule="evenodd" clip-rule="evenodd" fill="none" stroke="#30A9DC" stroke-width="2.0001" stroke-linecap="round" stroke-linejoin="round" stroke-miterlimit="10" points="
				75.839,63.748 75.839,58.284 73.208,58.284 			"/>
			
				<path fill-rule="evenodd" clip-rule="evenodd" fill="none" stroke="#30A9DC" stroke-width="2.0001" stroke-linecap="round" stroke-linejoin="round" stroke-miterlimit="10" d="
				M73.208,58.284c-0.33-1.563-0.943-3.079-1.846-4.462"/>
			
				<polyline fill-rule="evenodd" clip-rule="evenodd" fill="none" stroke="#30A9DC" stroke-width="2.0001" stroke-linecap="round" stroke-linejoin="round" stroke-miterlimit="10" points="
				71.362,53.822 73.221,51.964 69.357,48.101 67.499,49.959 			"/>
			
				<path fill-rule="evenodd" clip-rule="evenodd" fill="none" stroke="#30A9DC" stroke-width="2.0001" stroke-linecap="round" stroke-linejoin="round" stroke-miterlimit="10" d="
				M67.499,49.959c-1.383-0.902-2.898-1.516-4.463-1.846"/>
			
				<polyline fill-rule="evenodd" clip-rule="evenodd" fill="none" stroke="#30A9DC" stroke-width="2.0001" stroke-linecap="round" stroke-linejoin="round" stroke-miterlimit="10" points="
				63.036,48.113 63.036,45.482 57.573,45.482 57.573,48.113 			"/>
			
				<path fill-rule="evenodd" clip-rule="evenodd" fill="none" stroke="#30A9DC" stroke-width="2.0001" stroke-linecap="round" stroke-linejoin="round" stroke-miterlimit="10" d="
				M57.573,48.113c-1.563,0.33-3.079,0.943-4.463,1.846"/>
			
				<polyline fill-rule="evenodd" clip-rule="evenodd" fill="none" stroke="#30A9DC" stroke-width="2.0001" stroke-linecap="round" stroke-linejoin="round" stroke-miterlimit="10" points="
				53.11,49.959 51.252,48.101 47.39,51.964 49.247,53.822 			"/>
			
				<path fill-rule="evenodd" clip-rule="evenodd" fill="none" stroke="#30A9DC" stroke-width="2.0001" stroke-linecap="round" stroke-linejoin="round" stroke-miterlimit="10" d="
				M49.247,53.822c-0.902,1.383-1.516,2.898-1.845,4.462"/>
			
				<polyline fill-rule="evenodd" clip-rule="evenodd" fill="none" stroke="#30A9DC" stroke-width="2.0001" stroke-linecap="round" stroke-linejoin="round" stroke-miterlimit="10" points="
				47.402,58.284 44.771,58.284 44.771,63.748 47.402,63.748 			"/>
			
				<path fill-rule="evenodd" clip-rule="evenodd" fill="none" stroke="#30A9DC" stroke-width="2.0001" stroke-linecap="round" stroke-linejoin="round" stroke-miterlimit="10" d="
				M47.402,63.748c0.329,1.563,0.942,3.079,1.845,4.463"/>
			
				<polyline fill-rule="evenodd" clip-rule="evenodd" fill="none" stroke="#30A9DC" stroke-width="2.0001" stroke-linecap="round" stroke-linejoin="round" stroke-miterlimit="10" points="
				49.247,68.211 47.39,70.068 51.252,73.932 53.11,72.073 			"/>
			
				<path fill-rule="evenodd" clip-rule="evenodd" fill="none" stroke="#30A9DC" stroke-width="2.0001" stroke-linecap="round" stroke-linejoin="round" stroke-miterlimit="10" d="
				M53.11,72.073c1.384,0.902,2.899,1.517,4.463,1.846"/>
			
				<polyline fill-rule="evenodd" clip-rule="evenodd" fill="none" stroke="#30A9DC" stroke-width="2.0001" stroke-linecap="round" stroke-linejoin="round" stroke-miterlimit="10" points="
				57.573,73.919 57.573,76.55 63.036,76.55 63.036,73.919 			"/>
			
				<path fill-rule="evenodd" clip-rule="evenodd" fill="none" stroke="#30A9DC" stroke-width="2.0001" stroke-linecap="round" stroke-linejoin="round" stroke-miterlimit="10" d="
				M63.036,73.919c1.564-0.329,3.08-0.943,4.463-1.846"/>
			
				<polyline fill-rule="evenodd" clip-rule="evenodd" fill="none" stroke="#30A9DC" stroke-width="2.0001" stroke-linecap="round" stroke-linejoin="round" stroke-miterlimit="10" points="
				67.499,72.073 69.357,73.932 73.221,70.068 71.362,68.211 			"/>
			
				<path fill-rule="evenodd" clip-rule="evenodd" fill="none" stroke="#30A9DC" stroke-width="2.0001" stroke-linecap="round" stroke-linejoin="round" stroke-miterlimit="10" d="
				M71.362,68.211c0.902-1.384,1.516-2.899,1.846-4.463"/>
			
				<line fill-rule="evenodd" clip-rule="evenodd" fill="none" stroke="#30A9DC" stroke-width="2.0001" stroke-linecap="round" stroke-linejoin="round" stroke-miterlimit="10" x1="73.208" y1="63.748" x2="75.839" y2="63.748"/>
		</g>
		
			<line fill-rule="evenodd" clip-rule="evenodd" fill="none" stroke="#30A9DC" stroke-width="2.0001" stroke-linecap="round" stroke-linejoin="round" stroke-miterlimit="10" x1="9.2" y1="25.979" x2="73.07" y2="25.979"/>
		<g>
			
				<line fill-rule="evenodd" clip-rule="evenodd" fill="none" stroke="#30A9DC" stroke-width="2.0001" stroke-linecap="round" stroke-linejoin="round" stroke-miterlimit="10" x1="20.599" y1="18.692" x2="20.599" y2="8.489"/>
			
				<line fill-rule="evenodd" clip-rule="evenodd" fill="none" stroke="#30A9DC" stroke-width="2.0001" stroke-linecap="round" stroke-linejoin="round" stroke-miterlimit="10" x1="62.867" y1="18.692" x2="62.867" y2="8.489"/>
		</g>
		
			<line fill-rule="evenodd" clip-rule="evenodd" fill="none" stroke="#30A9DC" stroke-width="2.0001" stroke-linecap="round" stroke-linejoin="round" stroke-miterlimit="10" x1="24.729" y1="41.754" x2="19.409" y2="41.754"/>
		
			<path fill-rule="evenodd" clip-rule="evenodd" fill="none" stroke="#30A9DC" stroke-width="2.0001" stroke-linecap="round" stroke-linejoin="round" stroke-miterlimit="10" d="
			M19.409,41.754c-0.476,0-0.862-0.386-0.862-0.863"/>
		
			<line fill-rule="evenodd" clip-rule="evenodd" fill="none" stroke="#30A9DC" stroke-width="2.0001" stroke-linecap="round" stroke-linejoin="round" stroke-miterlimit="10" x1="18.547" y1="40.892" x2="18.547" y2="35.572"/>
		
			<path fill-rule="evenodd" clip-rule="evenodd" fill="none" stroke="#30A9DC" stroke-width="2.0001" stroke-linecap="round" stroke-linejoin="round" stroke-miterlimit="10" d="
			M18.547,35.572c0-0.476,0.387-0.862,0.862-0.862"/>
		
			<line fill-rule="evenodd" clip-rule="evenodd" fill="none" stroke="#30A9DC" stroke-width="2.0001" stroke-linecap="round" stroke-linejoin="round" stroke-miterlimit="10" x1="19.409" y1="34.709" x2="24.729" y2="34.709"/>
		
			<path fill-rule="evenodd" clip-rule="evenodd" fill="none" stroke="#30A9DC" stroke-width="2.0001" stroke-linecap="round" stroke-linejoin="round" stroke-miterlimit="10" d="
			M24.729,34.709c0.478,0,0.863,0.386,0.863,0.862"/>
		
			<line fill-rule="evenodd" clip-rule="evenodd" fill="none" stroke="#30A9DC" stroke-width="2.0001" stroke-linecap="round" stroke-linejoin="round" stroke-miterlimit="10" x1="25.592" y1="35.572" x2="25.592" y2="40.892"/>
		
			<path fill-rule="evenodd" clip-rule="evenodd" fill="none" stroke="#30A9DC" stroke-width="2.0001" stroke-linecap="round" stroke-linejoin="round" stroke-miterlimit="10" d="
			M25.592,40.892c0,0.477-0.386,0.863-0.863,0.863"/>
		
			<line fill-rule="evenodd" clip-rule="evenodd" fill="none" stroke="#30A9DC" stroke-width="2.0001" stroke-linecap="round" stroke-linejoin="round" stroke-miterlimit="10" x1="37.361" y1="41.754" x2="32.042" y2="41.754"/>
		
			<path fill-rule="evenodd" clip-rule="evenodd" fill="none" stroke="#30A9DC" stroke-width="2.0001" stroke-linecap="round" stroke-linejoin="round" stroke-miterlimit="10" d="
			M32.042,41.754c-0.477,0-0.863-0.386-0.863-0.863"/>
		
			<line fill-rule="evenodd" clip-rule="evenodd" fill="none" stroke="#30A9DC" stroke-width="2.0001" stroke-linecap="round" stroke-linejoin="round" stroke-miterlimit="10" x1="31.179" y1="40.892" x2="31.179" y2="35.572"/>
		
			<path fill-rule="evenodd" clip-rule="evenodd" fill="none" stroke="#30A9DC" stroke-width="2.0001" stroke-linecap="round" stroke-linejoin="round" stroke-miterlimit="10" d="
			M31.179,35.572c0-0.476,0.387-0.862,0.863-0.862"/>
		
			<line fill-rule="evenodd" clip-rule="evenodd" fill="none" stroke="#30A9DC" stroke-width="2.0001" stroke-linecap="round" stroke-linejoin="round" stroke-miterlimit="10" x1="32.042" y1="34.709" x2="37.361" y2="34.709"/>
		
			<path fill-rule="evenodd" clip-rule="evenodd" fill="none" stroke="#30A9DC" stroke-width="2.0001" stroke-linecap="round" stroke-linejoin="round" stroke-miterlimit="10" d="
			M37.361,34.709c0.476,0,0.862,0.386,0.862,0.862"/>
		
			<line fill-rule="evenodd" clip-rule="evenodd" fill="none" stroke="#30A9DC" stroke-width="2.0001" stroke-linecap="round" stroke-linejoin="round" stroke-miterlimit="10" x1="38.224" y1="35.572" x2="38.224" y2="40.892"/>
		
			<path fill-rule="evenodd" clip-rule="evenodd" fill="none" stroke="#30A9DC" stroke-width="2.0001" stroke-linecap="round" stroke-linejoin="round" stroke-miterlimit="10" d="
			M38.224,40.892c0,0.477-0.387,0.863-0.862,0.863"/>
		
			<line fill-rule="evenodd" clip-rule="evenodd" fill="none" stroke="#30A9DC" stroke-width="2.0001" stroke-linecap="round" stroke-linejoin="round" stroke-miterlimit="10" x1="49.993" y1="41.754" x2="44.674" y2="41.754"/>
		
			<path fill-rule="evenodd" clip-rule="evenodd" fill="none" stroke="#30A9DC" stroke-width="2.0001" stroke-linecap="round" stroke-linejoin="round" stroke-miterlimit="10" d="
			M44.674,41.754c-0.477,0-0.862-0.386-0.862-0.863"/>
		
			<line fill-rule="evenodd" clip-rule="evenodd" fill="none" stroke="#30A9DC" stroke-width="2.0001" stroke-linecap="round" stroke-linejoin="round" stroke-miterlimit="10" x1="43.812" y1="40.892" x2="43.812" y2="35.572"/>
		
			<path fill-rule="evenodd" clip-rule="evenodd" fill="none" stroke="#30A9DC" stroke-width="2.0001" stroke-linecap="round" stroke-linejoin="round" stroke-miterlimit="10" d="
			M43.812,35.572c0-0.476,0.386-0.862,0.862-0.862"/>
		
			<line fill-rule="evenodd" clip-rule="evenodd" fill="none" stroke="#30A9DC" stroke-width="2.0001" stroke-linecap="round" stroke-linejoin="round" stroke-miterlimit="10" x1="44.674" y1="34.709" x2="49.993" y2="34.709"/>
		
			<path fill-rule="evenodd" clip-rule="evenodd" fill="none" stroke="#30A9DC" stroke-width="2.0001" stroke-linecap="round" stroke-linejoin="round" stroke-miterlimit="10" d="
			M49.993,34.709c0.477,0,0.862,0.386,0.862,0.862"/>
		
			<line fill-rule="evenodd" clip-rule="evenodd" fill="none" stroke="#30A9DC" stroke-width="2.0001" stroke-linecap="round" stroke-linejoin="round" stroke-miterlimit="10" x1="50.855" y1="35.572" x2="50.855" y2="40.892"/>
		
			<path fill-rule="evenodd" clip-rule="evenodd" fill="none" stroke="#30A9DC" stroke-width="2.0001" stroke-linecap="round" stroke-linejoin="round" stroke-miterlimit="10" d="
			M50.855,40.892c0,0.477-0.386,0.863-0.862,0.863"/>
		
			<line fill-rule="evenodd" clip-rule="evenodd" fill="none" stroke="#30A9DC" stroke-width="2.0001" stroke-linecap="round" stroke-linejoin="round" stroke-miterlimit="10" x1="62.625" y1="41.754" x2="57.306" y2="41.754"/>
		
			<path fill-rule="evenodd" clip-rule="evenodd" fill="none" stroke="#30A9DC" stroke-width="2.0001" stroke-linecap="round" stroke-linejoin="round" stroke-miterlimit="10" d="
			M57.306,41.754c-0.477,0-0.862-0.386-0.862-0.863"/>
		
			<line fill-rule="evenodd" clip-rule="evenodd" fill="none" stroke="#30A9DC" stroke-width="2.0001" stroke-linecap="round" stroke-linejoin="round" stroke-miterlimit="10" x1="56.443" y1="40.892" x2="56.443" y2="35.572"/>
		
			<path fill-rule="evenodd" clip-rule="evenodd" fill="none" stroke="#30A9DC" stroke-width="2.0001" stroke-linecap="round" stroke-linejoin="round" stroke-miterlimit="10" d="
			M56.443,35.572c0-0.476,0.386-0.862,0.862-0.862"/>
		
			<line fill-rule="evenodd" clip-rule="evenodd" fill="none" stroke="#30A9DC" stroke-width="2.0001" stroke-linecap="round" stroke-linejoin="round" stroke-miterlimit="10" x1="57.306" y1="34.709" x2="62.625" y2="34.709"/>
		
			<path fill-rule="evenodd" clip-rule="evenodd" fill="none" stroke="#30A9DC" stroke-width="2.0001" stroke-linecap="round" stroke-linejoin="round" stroke-miterlimit="10" d="
			M62.625,34.709c0.477,0,0.863,0.386,0.863,0.862"/>
		
			<line fill-rule="evenodd" clip-rule="evenodd" fill="none" stroke="#30A9DC" stroke-width="2.0001" stroke-linecap="round" stroke-linejoin="round" stroke-miterlimit="10" x1="63.488" y1="35.572" x2="63.488" y2="40.892"/>
		
			<path fill-rule="evenodd" clip-rule="evenodd" fill="none" stroke="#30A9DC" stroke-width="2.0001" stroke-linecap="round" stroke-linejoin="round" stroke-miterlimit="10" d="
			M63.488,40.892c0,0.477-0.387,0.863-0.863,0.863"/>
		<g>
			
				<line fill-rule="evenodd" clip-rule="evenodd" fill="none" stroke="#30A9DC" stroke-width="2.0001" stroke-linecap="round" stroke-linejoin="round" stroke-miterlimit="10" x1="24.729" y1="54.872" x2="19.409" y2="54.872"/>
			
				<path fill-rule="evenodd" clip-rule="evenodd" fill="none" stroke="#30A9DC" stroke-width="2.0001" stroke-linecap="round" stroke-linejoin="round" stroke-miterlimit="10" d="
				M19.409,54.872c-0.476,0-0.862-0.386-0.862-0.862"/>
			
				<line fill-rule="evenodd" clip-rule="evenodd" fill="none" stroke="#30A9DC" stroke-width="2.0001" stroke-linecap="round" stroke-linejoin="round" stroke-miterlimit="10" x1="18.547" y1="54.01" x2="18.547" y2="48.69"/>
			
				<path fill-rule="evenodd" clip-rule="evenodd" fill="none" stroke="#30A9DC" stroke-width="2.0001" stroke-linecap="round" stroke-linejoin="round" stroke-miterlimit="10" d="
				M18.547,48.69c0-0.477,0.387-0.863,0.862-0.863"/>
			
				<line fill-rule="evenodd" clip-rule="evenodd" fill="none" stroke="#30A9DC" stroke-width="2.0001" stroke-linecap="round" stroke-linejoin="round" stroke-miterlimit="10" x1="19.409" y1="47.827" x2="24.729" y2="47.827"/>
			
				<path fill-rule="evenodd" clip-rule="evenodd" fill="none" stroke="#30A9DC" stroke-width="2.0001" stroke-linecap="round" stroke-linejoin="round" stroke-miterlimit="10" d="
				M24.729,47.827c0.478,0,0.863,0.387,0.863,0.863"/>
			
				<line fill-rule="evenodd" clip-rule="evenodd" fill="none" stroke="#30A9DC" stroke-width="2.0001" stroke-linecap="round" stroke-linejoin="round" stroke-miterlimit="10" x1="25.592" y1="48.69" x2="25.592" y2="54.01"/>
			
				<path fill-rule="evenodd" clip-rule="evenodd" fill="none" stroke="#30A9DC" stroke-width="2.0001" stroke-linecap="round" stroke-linejoin="round" stroke-miterlimit="10" d="
				M25.592,54.01c0,0.477-0.386,0.862-0.863,0.862"/>
			
				<line fill-rule="evenodd" clip-rule="evenodd" fill="none" stroke="#30A9DC" stroke-width="2.0001" stroke-linecap="round" stroke-linejoin="round" stroke-miterlimit="10" x1="37.361" y1="54.872" x2="32.042" y2="54.872"/>
			
				<path fill-rule="evenodd" clip-rule="evenodd" fill="none" stroke="#30A9DC" stroke-width="2.0001" stroke-linecap="round" stroke-linejoin="round" stroke-miterlimit="10" d="
				M32.042,54.872c-0.477,0-0.863-0.386-0.863-0.862"/>
			
				<line fill-rule="evenodd" clip-rule="evenodd" fill="none" stroke="#30A9DC" stroke-width="2.0001" stroke-linecap="round" stroke-linejoin="round" stroke-miterlimit="10" x1="31.179" y1="54.01" x2="31.179" y2="48.69"/>
			
				<path fill-rule="evenodd" clip-rule="evenodd" fill="none" stroke="#30A9DC" stroke-width="2.0001" stroke-linecap="round" stroke-linejoin="round" stroke-miterlimit="10" d="
				M31.179,48.69c0-0.477,0.387-0.863,0.863-0.863"/>
			
				<line fill-rule="evenodd" clip-rule="evenodd" fill="none" stroke="#30A9DC" stroke-width="2.0001" stroke-linecap="round" stroke-linejoin="round" stroke-miterlimit="10" x1="32.042" y1="47.827" x2="37.361" y2="47.827"/>
			
				<path fill-rule="evenodd" clip-rule="evenodd" fill="none" stroke="#30A9DC" stroke-width="2.0001" stroke-linecap="round" stroke-linejoin="round" stroke-miterlimit="10" d="
				M37.361,47.827c0.476,0,0.862,0.387,0.862,0.863"/>
			
				<line fill-rule="evenodd" clip-rule="evenodd" fill="none" stroke="#30A9DC" stroke-width="2.0001" stroke-linecap="round" stroke-linejoin="round" stroke-miterlimit="10" x1="38.224" y1="48.69" x2="38.224" y2="54.01"/>
			
				<path fill-rule="evenodd" clip-rule="evenodd" fill="none" stroke="#30A9DC" stroke-width="2.0001" stroke-linecap="round" stroke-linejoin="round" stroke-miterlimit="10" d="
				M38.224,54.01c0,0.477-0.387,0.862-0.862,0.862"/>
		</g>
		
			<line fill-rule="evenodd" clip-rule="evenodd" fill="none" stroke="#30A9DC" stroke-width="2.0001" stroke-linecap="round" stroke-linejoin="round" stroke-miterlimit="10" x1="73.327" y1="57.391" x2="73.327" y2="16.004"/>
		
			<path fill-rule="evenodd" clip-rule="evenodd" fill="none" stroke="#30A9DC" stroke-width="2.0001" stroke-linecap="round" stroke-linejoin="round" stroke-miterlimit="10" d="
			M73.327,16.004c0-1.252-1.016-2.267-2.267-2.267"/>
		
			<line fill-rule="evenodd" clip-rule="evenodd" fill="none" stroke="#30A9DC" stroke-width="2.0001" stroke-linecap="round" stroke-linejoin="round" stroke-miterlimit="10" x1="71.061" y1="13.737" x2="11.467" y2="13.737"/>
		
			<path fill-rule="evenodd" clip-rule="evenodd" fill="none" stroke="#30A9DC" stroke-width="2.0001" stroke-linecap="round" stroke-linejoin="round" stroke-miterlimit="10" d="
			M11.467,13.737c-1.252,0-2.267,1.015-2.267,2.267"/>
		
			<line fill-rule="evenodd" clip-rule="evenodd" fill="none" stroke="#30A9DC" stroke-width="2.0001" stroke-linecap="round" stroke-linejoin="round" stroke-miterlimit="10" x1="9.2" y1="16.004" x2="9.2" y2="61.414"/>
		
			<path fill-rule="evenodd" clip-rule="evenodd" fill="none" stroke="#30A9DC" stroke-width="2.0001" stroke-linecap="round" stroke-linejoin="round" stroke-miterlimit="10" d="
			M9.2,61.414c0,1.252,1.015,2.267,2.267,2.267"/>
		
			<line fill-rule="evenodd" clip-rule="evenodd" fill="none" stroke="#30A9DC" stroke-width="2.0001" stroke-linecap="round" stroke-linejoin="round" stroke-miterlimit="10" x1="11.467" y1="63.681" x2="46.17" y2="63.681"/>
	</g>
</g>
<g id="Layer_1_3_">
</g>
<g id="Layer_1_4_">
</g>
<g id="Layer_1_5_">
</g>
<g id="Layer_1_6_">
</g>
</svg>
